<!--
  - Copyright (c) TIKI Inc.
  - MIT license. See LICENSE file in root directory.
  -->

<svg width="71" height="117" viewBox="0 0 71 117" fill="none" xmlns="http://www.w3.org/2000/svg">
    <path fill-rule="evenodd" clip-rule="evenodd" d="M56.0007 43.3014C55.2409 42.6617 54.4443 42.0623 53.6139 41.5072C55.8511 38.1604 59.0946 34.1673 62.8339 32.174C59.0467 30.9857 52.7017 30.7052 46.2465 38.0615C45.1871 37.7506 44.0983 37.502 42.9839 37.3202C42.5303 37.2461 42.0724 37.1832 41.6105 37.1317L35.4084 36.439C34.3606 36.3139 33.3003 36.2599 32.2531 36.2638C32.1366 36.2643 32.0202 36.2654 31.9039 36.2674C27.0662 25.3543 19.9981 24.0316 15.6793 24.4311C19.5949 27.7508 22.1647 33.7909 23.5219 37.7508C22.5838 38.0772 21.6629 38.4563 20.7627 38.8871C19.5406 35.2912 16.9912 29.0779 13.2557 26.3044C12.4 25.6691 12.0145 24.5868 12.2757 23.5537C12.5368 22.5142 13.3937 21.7435 14.4532 21.5847C15.0522 21.4963 15.7272 21.4285 16.4615 21.4056C15.2623 19.7836 13.8398 18.1542 12.1534 16.589C11.0635 15.5741 10.715 14.0337 11.2658 12.6641C11.8231 11.2817 13.145 10.4123 14.6577 10.4196C19.2024 10.4799 27.1198 11.7531 32.5191 18.9959C35.5305 8.43822 38.4854 3.46677 40.5063 1.13703C41.208 0.328098 42.2794 -0.0887599 43.353 0.0168603C44.4265 0.12893 45.3792 0.751036 45.8998 1.68438C48.5879 6.49915 49.8387 12.4869 49.639 19.5249C55.7963 15.2123 62.533 15.3869 67.3789 16.4396C68.8474 16.7565 69.9444 17.9135 70.1762 19.3898C70.4015 20.853 69.7153 22.2747 68.4251 23.0149C65.4306 24.7312 62.9822 26.7214 61.0007 28.72C62.4153 28.9229 63.6482 29.2835 64.6408 29.6579C65.6442 30.0347 66.3137 30.9739 66.35 32.0446C66.3864 33.1088 65.7759 34.0851 64.8014 34.5209C61.3178 36.0959 58.1181 40.1146 56.0007 43.3014ZM54.399 29.1223C55.2953 28.8788 56.166 28.7228 57.0042 28.6366C59.4197 25.8304 62.664 22.8909 66.9479 20.4339C67.2575 20.2586 67.263 19.9877 67.243 19.8394C67.2165 19.6846 67.1251 19.4206 66.7563 19.3381C63.1281 18.5532 58.2939 18.3181 53.6367 20.6127C53.532 20.7108 53.4114 20.7954 53.2764 20.8622C52.9409 21.0313 45.2759 24.9624 43.634 35.2699C43.5205 35.9927 42.8889 36.5177 42.1713 36.5203C42.0938 36.5206 42.0097 36.5145 41.9322 36.5019C41.1171 36.3759 40.5647 35.6104 40.6974 34.8036C40.7362 34.5592 40.778 34.3179 40.8227 34.0797C40.7968 34.173 40.7688 34.2661 40.7384 34.3589C40.4764 35.1534 39.6118 35.5888 38.8158 35.3274C38.2202 35.1296 37.8303 34.6086 37.7765 34.0219C37.7089 33.2673 37.7838 32.5253 37.9038 31.796C38.0239 31.0602 38.2215 30.337 38.4256 29.6138C38.6299 28.8906 38.8727 28.1672 39.135 27.4503C39.4039 26.7333 39.6921 26.0162 40.0579 25.3117C40.1156 25.2018 40.2513 25.1561 40.3679 25.2138C40.4325 25.2523 40.4716 25.3037 40.4847 25.3617C40.6815 26.135 40.8007 26.8957 40.9007 27.65C40.994 28.4108 41.0614 29.1652 41.1031 29.9134L41.1035 29.921C41.1385 30.673 41.1732 31.4186 41.1181 32.1581C41.0966 32.4833 41.0665 32.8073 41.0195 33.1296C42.0981 28.3777 44.3222 24.9269 46.4863 22.5472C46.9636 17.0905 46.7836 9.35408 43.3066 3.13257C43.2415 3.01671 43.1315 2.98487 43.0539 2.97871C42.9828 2.97252 42.86 2.97944 42.7634 3.08947C41.1183 4.98899 37.8616 10.0901 34.535 22.9637C35.8488 25.9715 36.8099 29.9067 36.1314 34.4493C36.0354 35.0979 35.5163 35.5839 34.8904 35.6806C34.9293 35.7727 34.9679 35.8653 35.0064 35.9583L43.319 36.9059C46.6703 32.8271 50.3889 30.2119 54.399 29.1223ZM14.6237 13.4062C18.7795 13.4646 24.0786 14.5236 28.2777 18.6442C28.2923 18.6604 28.3074 18.6763 28.3229 18.6921L28.3237 18.693C28.4203 18.7937 33.8062 24.4122 33.3442 32.4533C31.0012 28.1421 28.0589 25.0515 24.5698 23.2367C23.1106 22.4756 21.6706 22.0018 20.3105 21.7261C18.7516 19.3048 16.7517 16.8058 14.1879 14.427C13.9284 14.1829 13.9792 13.9182 14.0368 13.7825C14.0944 13.6404 14.2424 13.4076 14.6107 13.4063L14.6237 13.4062Z" fill="#30E542"/>
    <path d="M54.399 29.1223C55.2953 28.8788 56.166 28.7228 57.0042 28.6366C59.4197 25.8304 62.664 22.8909 66.9479 20.4339C67.2575 20.2586 67.263 19.9877 67.243 19.8394C67.2165 19.6846 67.1251 19.4206 66.7563 19.3381C63.1281 18.5532 58.2939 18.3181 53.6367 20.6127C53.532 20.7108 53.4114 20.7954 53.2764 20.8622C52.9409 21.0313 45.2759 24.9624 43.634 35.2699C43.5205 35.9927 42.8889 36.5177 42.1713 36.5203C42.0938 36.5206 42.0097 36.5145 41.9322 36.5019C41.1171 36.3759 40.5647 35.6104 40.6974 34.8036C40.7362 34.5592 40.778 34.3179 40.8227 34.0797C40.7968 34.173 40.7688 34.2661 40.7384 34.3589C40.4764 35.1534 39.6118 35.5888 38.8158 35.3274C38.2202 35.1296 37.8303 34.6086 37.7765 34.0219C37.7089 33.2673 37.7838 32.5253 37.9038 31.796C38.0239 31.0602 38.2215 30.337 38.4256 29.6138C38.6299 28.8906 38.8727 28.1672 39.135 27.4503C39.4039 26.7333 39.6921 26.0162 40.0579 25.3117C40.1156 25.2018 40.2513 25.1561 40.3679 25.2138C40.4325 25.2523 40.4716 25.3037 40.4847 25.3617C40.6815 26.135 40.8007 26.8957 40.9007 27.65C40.994 28.4108 41.0614 29.1652 41.1031 29.9134L41.1035 29.921C41.1385 30.673 41.1732 31.4186 41.1181 32.1581C41.0966 32.4833 41.0665 32.8073 41.0195 33.1296C42.0981 28.3777 44.3222 24.9269 46.4863 22.5472C46.9636 17.0905 46.7836 9.35408 43.3066 3.13257C43.2415 3.01671 43.1315 2.98487 43.0539 2.97871C42.9828 2.97252 42.86 2.97944 42.7634 3.08947C41.1183 4.98899 37.8616 10.0901 34.535 22.9637C35.8488 25.9715 36.8099 29.9067 36.1314 34.4493C36.0354 35.0979 35.5163 35.5839 34.8904 35.6806C34.9293 35.7727 34.9679 35.8653 35.0064 35.9583L43.319 36.9059C46.6703 32.8271 50.3889 30.2119 54.399 29.1223Z" fill="#30E542"/>
    <path d="M28.2777 18.6442C24.0786 14.5236 18.7795 13.4646 14.6237 13.4062L14.6107 13.4063C14.2424 13.4076 14.0944 13.6404 14.0368 13.7825C13.9792 13.9182 13.9284 14.1829 14.1879 14.427C16.7517 16.8058 18.7516 19.3048 20.3105 21.7261C21.6706 22.0018 23.1106 22.4756 24.5698 23.2367C28.0589 25.0515 31.0012 28.1421 33.3442 32.4533C33.8062 24.4122 28.4203 18.7937 28.3237 18.693L28.3229 18.6921C28.3074 18.6763 28.2923 18.6604 28.2777 18.6442Z" fill="#30E542"/>
    <path d="M31.9039 36.2674C27.0662 25.3543 19.9981 24.0316 15.6793 24.4311C19.5949 27.7508 22.1647 33.7909 23.5219 37.7508C23.6243 37.7151 23.7268 37.6801 23.8296 37.6458C26.4198 36.7797 29.1364 36.3132 31.9039 36.2674Z" fill="#30E542"/>
    <path d="M46.2465 38.0615C48.5005 38.7229 51.6613 40.3271 53.6139 41.5072C55.8511 38.1604 59.0946 34.1673 62.8339 32.174C59.0467 30.9857 52.7017 30.7052 46.2465 38.0615Z" fill="#30E542"/>
    <path fill-rule="evenodd" clip-rule="evenodd" d="M56.0007 43.3014C55.2409 42.6617 54.4443 42.0623 53.6139 41.5072C55.8511 38.1604 59.0946 34.1673 62.8339 32.174C59.0467 30.9857 52.7017 30.7052 46.2465 38.0615C44.7558 37.6241 43.2071 37.3098 41.6105 37.1317L35.4084 36.439C34.3606 36.3139 33.3003 36.2599 32.2531 36.2638C32.1366 36.2643 32.0202 36.2654 31.9039 36.2674C27.0662 25.3543 19.9981 24.0316 15.6793 24.4311C19.5949 27.7508 22.1647 33.7909 23.5219 37.7508C22.5838 38.0772 21.6629 38.4563 20.7627 38.8871C19.5406 35.2912 16.9912 29.0779 13.2557 26.3044C12.4 25.6691 12.0145 24.5868 12.2757 23.5537C12.5368 22.5142 13.3937 21.7435 14.4532 21.5847C15.0522 21.4963 15.7272 21.4285 16.4615 21.4056C15.2623 19.7836 13.8398 18.1542 12.1534 16.589C11.0635 15.5741 10.715 14.0337 11.2658 12.6641C11.8231 11.2817 13.145 10.4123 14.6577 10.4196C19.2024 10.4799 27.1198 11.7531 32.5191 18.9959C35.5305 8.43822 38.4854 3.46677 40.5063 1.13703C41.208 0.328098 42.2794 -0.0887599 43.353 0.0168603C44.4265 0.12893 45.3792 0.751036 45.8998 1.68438C48.5879 6.49915 49.8387 12.4869 49.639 19.5249C55.7963 15.2123 62.533 15.3869 67.3789 16.4396C68.8474 16.7565 69.9444 17.9135 70.1762 19.3898C70.4015 20.853 69.7153 22.2747 68.4251 23.0149C65.4306 24.7312 62.9822 26.7214 61.0007 28.72C62.4153 28.9229 63.6482 29.2835 64.6408 29.6579C65.6442 30.0347 66.3137 30.9739 66.35 32.0446C66.3864 33.1088 65.7759 34.0851 64.8014 34.5209C61.3178 36.0959 58.1181 40.1146 56.0007 43.3014ZM54.399 29.1223C55.2953 28.8788 56.166 28.7228 57.0042 28.6366C59.4197 25.8304 62.664 22.8909 66.9479 20.4339C67.2575 20.2586 67.263 19.9877 67.243 19.8394C67.2165 19.6846 67.1251 19.4206 66.7563 19.3381C63.1281 18.5532 58.2939 18.3181 53.6367 20.6127C53.532 20.7108 53.4114 20.7954 53.2764 20.8622C52.9409 21.0313 45.2759 24.9624 43.634 35.2699C43.5205 35.9927 42.8889 36.5177 42.1713 36.5203C42.0938 36.5206 42.0097 36.5145 41.9322 36.5019C41.1171 36.3759 40.5647 35.6104 40.6974 34.8036C40.7362 34.5592 40.778 34.3179 40.8227 34.0797C40.7968 34.173 40.7688 34.2661 40.7384 34.3589C40.4764 35.1534 39.6118 35.5888 38.8158 35.3274C38.2202 35.1296 37.8303 34.6086 37.7765 34.0219C37.7089 33.2673 37.7838 32.5253 37.9038 31.796C38.0239 31.0602 38.2215 30.337 38.4256 29.6138C38.6299 28.8906 38.8727 28.1672 39.135 27.4503C39.4039 26.7333 39.6921 26.0162 40.0579 25.3117C40.1156 25.2018 40.2513 25.1561 40.3679 25.2138C40.4325 25.2523 40.4716 25.3037 40.4847 25.3617C40.6815 26.135 40.8007 26.8957 40.9007 27.65C40.994 28.4108 41.0614 29.1652 41.1031 29.9134L41.1035 29.921C41.1385 30.673 41.1732 31.4186 41.1181 32.1581C41.0966 32.4833 41.0665 32.8073 41.0195 33.1296C42.0981 28.3777 44.3222 24.9269 46.4863 22.5472C46.9636 17.0905 46.7836 9.35408 43.3066 3.13257C43.2415 3.01671 43.1315 2.98487 43.0539 2.97871C42.9828 2.97252 42.86 2.97944 42.7634 3.08947C41.1183 4.98899 37.8616 10.0901 34.535 22.9637C35.8488 25.9715 36.8099 29.9067 36.1314 34.4493C36.0354 35.0979 35.5163 35.5839 34.8904 35.6806C34.9293 35.7727 34.9679 35.8653 35.0064 35.9583L43.319 36.9059C46.6703 32.8271 50.3889 30.2119 54.399 29.1223ZM14.6237 13.4062C18.7795 13.4646 24.0786 14.5236 28.2777 18.6442C28.2923 18.6604 28.3074 18.6763 28.3229 18.6921L28.3237 18.693C28.4203 18.7937 33.8062 24.4122 33.3442 32.4533C31.0012 28.1421 28.0589 25.0515 24.5698 23.2367C23.1106 22.4756 21.6706 22.0018 20.3105 21.7261C18.7516 19.3048 16.7517 16.8058 14.1879 14.427C13.9284 14.1829 13.9792 13.9182 14.0368 13.7825C14.0944 13.6404 14.2424 13.4076 14.6107 13.4063L14.6237 13.4062Z" fill="#000072"/>
    <path fill-rule="evenodd" clip-rule="evenodd" d="M35.0755 20.937C35.0752 20.9422 35.0751 20.945 35.0751 20.945C37.3977 16.9649 42.6317 4.21778 43.1328 2.99347C43.105 2.98496 43.0779 2.98061 43.0539 2.97871C42.9828 2.97252 42.86 2.97944 42.7634 3.08947C41.2076 4.88597 38.2103 9.54617 35.0755 20.937Z" fill="#7BEE86"/>
    <path d="M23.5219 37.7508C23.6243 37.7151 23.7268 37.6801 23.8296 37.6458C26.4198 36.7797 29.1364 36.3132 31.9039 36.2674C31.2191 34.7226 30.4896 33.37 29.7296 32.1872C26.9598 32.3723 24.2947 32.7571 21.7739 33.3157C22.4922 34.9058 23.0733 36.4419 23.5219 37.7508Z" fill="#2CD246"/>
    <path fill-rule="evenodd" clip-rule="evenodd" d="M57.2344 36.7982C55.0823 35.8416 52.777 35.0115 50.352 34.3218C49.0046 35.2626 47.628 36.4871 46.2465 38.0615C48.5005 38.7229 51.6613 40.3271 53.6139 41.5072C54.6293 39.9882 55.8521 38.3361 57.2344 36.7982Z" fill="#2CD246"/>
    <path d="M18.0412 18.5703C18.8859 19.6261 19.6391 20.6833 20.3105 21.7261C21.6706 22.0018 23.1106 22.4756 24.5698 23.2367C28.0589 25.0515 31.0012 28.1421 33.3442 32.4533C33.3731 31.9516 33.3791 31.4593 33.3651 30.9772C30.274 22.9596 22.8457 19.7994 18.0412 18.5703Z" fill="#2CD246"/>
    <path d="M34.535 22.9637C35.8488 25.9715 36.8099 29.9067 36.1314 34.4493C36.0354 35.0979 35.5163 35.5839 34.8904 35.6806C34.9293 35.7727 34.9679 35.8653 35.0064 35.9583L43.319 36.9059C46.6703 32.8271 50.3889 30.2119 54.399 29.1223C55.2953 28.8788 56.166 28.7228 57.0042 28.6366C57.7142 27.8117 58.4959 26.9753 59.3545 26.143C51.063 26.2388 47.2478 30.6775 45.8985 32.7932C45.3614 32.6757 44.8159 32.5666 44.2654 32.4625C44.0069 33.3405 43.7924 34.2755 43.634 35.2699C43.5205 35.9927 42.8889 36.5177 42.1713 36.5203C42.0938 36.5206 42.0097 36.5145 41.9322 36.5019C41.1171 36.3759 40.5647 35.6104 40.6974 34.8036C40.7362 34.5592 40.778 34.3179 40.8227 34.0797C40.7968 34.173 40.7688 34.2661 40.7384 34.3589C40.4764 35.1534 39.6118 35.5888 38.8158 35.3274C38.2202 35.1296 37.8303 34.6086 37.7765 34.0219C37.7089 33.2673 37.7838 32.5253 37.9038 31.796C38.0056 31.172 38.1632 30.5571 38.3333 29.9436C37.524 27.5566 36.3525 24.6222 35.3789 22.2711C35.2572 21.9772 35.1386 21.6924 35.0242 21.4189L34.9754 21.3025C34.8289 21.8413 34.682 22.3949 34.535 22.9637Z" fill="#2CD246"/>
    <path d="M41.0529 29.1632C41.0725 29.414 41.0892 29.664 41.1031 29.9134L41.1035 29.921C41.1385 30.673 41.1732 31.4186 41.1181 32.1581C41.0966 32.4833 41.0665 32.8073 41.0195 33.1296C42.0981 28.3777 44.3222 24.9269 46.4863 22.5472C46.5476 21.8461 46.5981 21.1074 46.6321 20.3391C44.2844 22.4974 42.3451 26.2017 41.0529 29.1632Z" fill="#2CD246"/>
    <path fill-rule="evenodd" clip-rule="evenodd" d="M35.0755 20.937C35.0422 21.0581 35.0088 21.1798 34.9754 21.3025C35.7104 18.6003 36.4387 16.2699 37.1434 14.2613C36.4707 16.1787 35.7766 18.3895 35.0755 20.937Z" fill="#2CD246"/>
    <path d="M33.706 116.359C32.452 116.364 31.1846 116.298 29.9041 116.154L29.3286 116.092C11.3367 114.082 -1.66649 97.8377 0.347262 79.8787L2.58609 59.8998C3.4805 51.9496 7.41633 44.8265 13.681 39.8362C19.9456 34.8458 27.7784 32.5845 35.7461 33.477L41.9481 34.1696C58.3943 36.0043 70.2738 50.8471 68.4287 67.2572L66.19 87.2361C64.32 103.917 50.1385 116.297 33.706 116.359ZM32.2531 36.2638C26.1894 36.2866 20.3531 38.3275 15.5387 42.1642C9.89917 46.6619 6.34853 53.0805 5.54164 60.237L3.30281 80.2159C1.47038 96.5421 13.2916 111.314 29.6536 113.143L30.2292 113.205C46.5912 115.033 61.3955 103.238 63.228 86.9117L65.4668 66.933C67.1241 52.1555 56.4268 38.7853 41.6105 37.1317L35.4084 36.439C34.3606 36.3139 33.3003 36.2599 32.2531 36.2638Z" fill="#000072"/>
    <path d="M32.2531 36.2638C26.1894 36.2866 20.3531 38.3275 15.5387 42.1642C9.89917 46.6619 6.34853 53.0805 5.54164 60.237L3.30281 80.2159C1.47038 96.5421 13.2916 111.314 29.6536 113.143L30.2292 113.205C46.5912 115.033 61.3955 103.238 63.228 86.9117L65.4668 66.933C67.1241 52.1555 56.4268 38.7853 41.6105 37.1317L35.4084 36.439C34.3606 36.3139 33.3003 36.2599 32.2531 36.2638Z" fill="#FFD225"/>
    <path fill-rule="evenodd" clip-rule="evenodd" d="M25.7421 69.0707C28.7036 67.4776 31.7731 65.7747 34.845 63.9938C31.7643 61.2961 28.7024 58.4888 25.802 55.6357C20.6089 58.4871 15.7565 60.8596 11.936 62.5962C13.8422 64.7565 16.1277 67.1856 18.8487 69.8554C18.8622 72.212 20.0695 74.1398 21.7613 74.3248C22.2754 74.381 22.7808 74.2702 23.2497 74.0241C26.5955 77.0861 30.4591 80.3983 34.9139 83.938C39.6881 81.4303 44.552 78.6963 49.1826 75.7956C48.6038 75.3455 48.0158 74.8855 47.4199 74.4161C47.802 73.7164 48.0687 72.8798 48.1677 71.9661C48.1769 71.8812 48.1846 71.7967 48.1907 71.7125C49.3265 72.6138 50.4357 73.4829 51.5106 74.3161C55.87 71.4939 59.9638 68.5371 63.5273 65.5113C60.1241 63.0665 56.1364 59.8499 52.0306 56.2015C48.3234 58.8214 44.0801 61.5659 39.307 64.4091C39.5231 64.592 39.7373 64.7749 39.9526 64.9587L39.9535 64.9595C40.1386 65.1176 40.3246 65.2764 40.5134 65.4366C41.3607 66.1511 42.2032 66.8537 43.0383 67.5432C42.4541 68.0908 41.9722 68.867 41.6679 69.7848C40.1093 68.5013 38.527 67.1735 36.94 65.8113C33.7213 67.6876 30.2829 69.6098 26.6249 71.5716C26.0005 71.9046 25.3804 72.2332 24.7663 72.5574C25.2478 71.7992 25.5859 70.8453 25.7004 69.7883C25.7267 69.5459 25.7403 69.3063 25.7421 69.0707ZM51.01 95.8172C55.4416 93.3042 59.4917 90.741 63.1988 88.1147C63.6308 87.8099 64.1737 87.8014 64.6079 88.0642L64.4641 89.3742C64.4313 89.665 64.3875 89.9558 64.3436 90.2465C64.3291 90.343 64.3146 90.4394 64.3004 90.5359C60.9544 92.8901 57.33 95.1934 53.4081 97.453C55.5273 98.8834 57.7309 100.339 60.0248 101.821C59.5558 102.551 59.0541 103.263 58.5201 103.942C55.8632 102.224 53.3164 100.537 50.8859 98.8815C46.1574 101.505 41.0213 104.079 35.4391 106.616C38.6721 108.856 41.6726 110.867 44.2649 112.604L44.7005 112.896C44.9339 113.05 45.0963 113.262 45.1877 113.5C44.2194 113.839 43.2248 114.12 42.2109 114.356C39.398 112.471 36.1576 110.29 32.6706 107.852C28.8692 109.53 24.874 111.19 20.672 112.844C19.5262 112.436 18.406 111.962 17.3373 111.425C17.4404 111.347 17.5501 111.276 17.6792 111.223C22.0686 109.53 26.2318 107.824 30.1881 106.106C25.7933 102.982 21.0933 99.4838 16.4311 95.6956C11.7455 97.7451 7.87925 99.3012 5.39395 100.233C4.95152 99.4799 4.54134 98.7074 4.16986 97.9155C6.39052 97.0879 9.89549 95.6944 14.1809 93.8399C10.2251 90.5328 6.3396 87.0256 2.73154 83.3689C2.58299 83.4017 2.43437 83.4215 2.28561 83.4027C1.99457 83.3652 1.72256 83.2308 1.51489 83.0187C1.52738 82.9025 1.53664 82.788 1.5459 82.6735C1.55517 82.5589 1.56444 82.4444 1.57694 82.3282L1.90224 79.4565C2.28352 79.4228 2.67189 79.5568 2.95745 79.8526C3.04386 79.9467 3.13312 80.0379 3.22143 80.1282C3.2658 80.1736 3.30992 80.2187 3.35332 80.2638C5.8701 79.1062 11.4521 76.4922 18.3428 72.9702C14.7225 69.4942 11.8017 66.3831 9.47084 63.7021C7.41204 64.5936 5.81767 65.2188 4.85569 65.5449C4.66847 65.61 4.47458 65.6237 4.29351 65.605C3.98955 65.574 3.71106 65.4331 3.5034 65.221L3.7286 63.2335C3.81888 63.1751 3.91566 63.123 4.01894 63.084C4.80662 62.823 6.07177 62.3216 7.70466 61.6253C6.48374 60.1462 5.46381 58.8214 4.62556 57.6763C4.52163 57.5413 4.4564 57.3867 4.41703 57.232L4.42686 57.1665C4.47408 56.852 4.52203 56.5326 4.58129 56.2187C4.66481 56.083 4.77423 55.9599 4.90963 55.8627C5.48984 55.4413 6.30484 55.5671 6.72723 56.146C7.64345 57.4004 8.78674 58.8669 10.1764 60.5324C13.8679 58.867 18.6814 56.5269 23.8813 53.7014C21.3179 51.1052 18.9225 48.4824 16.786 45.8973C14.1605 47.3521 10.928 49.0027 6.41112 51.1869C6.2627 51.2584 6.11417 51.2977 5.95907 51.3113C6.45849 50.0387 7.04862 48.8173 7.72947 47.6537C10.7557 46.1651 13.1235 44.9436 15.1298 43.8394C14.4476 42.9519 13.7915 42.0706 13.1806 41.1957C13.1705 41.1792 13.1622 41.1644 13.1539 41.1496C13.1459 41.1354 13.138 41.1213 13.1285 41.1056C13.7728 40.542 14.4431 40.0105 15.1393 39.5112C15.1978 39.5755 15.2562 39.6398 15.3081 39.7105C15.9516 40.6306 16.6599 41.5825 17.4134 42.5473C20.7137 40.6123 23.1469 38.8844 26.6619 36.3883L26.7311 36.3391C27.4918 35.7945 28.3107 35.2173 29.194 34.5947C30.0665 34.5464 30.9392 34.5495 31.825 34.5914C32.0986 35.1579 31.9331 35.8488 31.4045 36.2184C30.244 37.0355 29.1996 37.7748 28.2388 38.4557C24.7315 40.9459 22.2817 42.6837 19.0631 44.5922C21.1217 47.0614 23.5168 49.6648 26.2359 52.4025C30.6739 49.9153 35.2985 47.1114 39.6636 44.1019C37.2813 41.5242 35.0412 38.9075 33.0533 36.3348C32.6636 35.8396 32.6998 35.1493 33.0988 34.6898C33.1635 34.696 33.2282 34.7006 33.2928 34.7052C33.3575 34.7098 33.4221 34.7143 33.4868 34.7206L35.2524 34.9202C37.2271 37.4608 39.4478 40.0455 41.804 42.5909C44.3313 40.769 46.7354 38.8828 48.9389 36.9522C49.8192 37.2328 50.6737 37.5521 51.5024 37.9103C51.4387 38.1363 51.3166 38.3431 51.1298 38.505C48.8039 40.565 46.2644 42.5743 43.6084 44.5064C46.3926 47.4115 49.3058 50.2388 52.199 52.8661C55.6543 50.3439 58.7606 47.7972 61.3047 45.3042C61.8631 45.9795 62.3895 46.6806 62.8771 47.4076C60.5004 49.7064 57.6069 52.1233 54.1838 54.6518C58.2635 58.2551 62.2059 61.4009 65.5311 63.7558C65.6955 63.6074 65.8571 63.4563 66.0179 63.306C66.1027 63.2267 66.1873 63.1476 66.2719 63.0693C66.5682 62.7843 66.9622 62.6797 67.3373 62.7297C67.3143 63.4846 67.2719 64.2459 67.1842 65.0074L66.9717 66.9175C66.7137 67.0861 66.4166 67.1647 66.1126 67.1336C65.9899 67.1212 65.8668 67.0829 65.7502 67.0317C62.1806 70.1156 58.0676 73.1305 53.6827 76.0045C58.759 79.8813 62.8556 82.8009 64.9945 84.2958L65.0139 84.3151L64.7638 86.5478C64.5573 86.6389 64.3247 86.672 64.0984 86.6471C63.8914 86.6221 63.6842 86.5455 63.4962 86.4171C61.5452 85.0441 57.0275 81.8359 51.3611 77.4904C46.7564 80.4038 41.912 83.1635 37.1379 85.697C41.2743 88.9002 45.8769 92.2822 51.01 95.8172ZM50.0392 54.3965C47.146 51.7498 44.2393 48.9225 41.4678 46.0174C37.1416 49.033 32.5818 51.8304 28.1759 54.311C30.901 56.9647 33.9175 59.727 37.2188 62.6043C41.65 59.9753 46.0288 57.2045 50.0392 54.3965ZM20.3346 74.872C13.7472 78.2575 8.22337 80.8712 5.2678 82.2369C8.92108 85.887 12.8517 89.3748 16.8399 92.6688C21.4865 90.6065 26.836 88.0966 32.3912 85.2505C27.7486 81.5332 23.7598 78.0585 20.3346 74.872ZM19.0899 94.4987C23.8103 98.2867 28.5556 101.771 32.9502 104.87C38.5583 102.359 43.7268 99.818 48.4813 97.2264C43.348 93.6592 38.7388 90.2514 34.6152 87.0159C29.1182 89.8619 23.7881 92.3911 19.0899 94.4987Z" fill="#F0C423"/>
    <path fill-rule="evenodd" clip-rule="evenodd" d="M32.2531 36.2638C26.1894 36.2866 20.3531 38.3275 15.5387 42.1642C13.7117 43.6213 12.104 45.2799 10.7377 47.1C12.5342 45.3925 16.7287 41.933 23.1944 39.6832L23.1947 39.7411C23.3399 40.5792 24.99 40.9923 26.8828 40.6627C28.7757 40.3395 30.1879 39.3988 30.0425 38.5608C30.0094 38.3675 29.8924 38.1938 29.7108 38.0525C35.6516 37.1155 42.8823 37.3794 51.3483 40.1484C48.4073 38.5753 45.1249 37.5239 41.6105 37.1317L35.4084 36.439C34.3606 36.3139 33.3003 36.2599 32.2531 36.2638Z" fill="#F5D972"/>
    <path d="M33.706 116.359C32.452 116.364 31.1846 116.298 29.9041 116.154L29.3286 116.092C11.3367 114.082 -1.66649 97.8377 0.347262 79.8787L2.58609 59.8998C3.4805 51.9496 7.41633 44.8265 13.681 39.8362C19.9456 34.8458 27.7784 32.5845 35.7461 33.477L41.9481 34.1696C58.3943 36.0043 70.2738 50.8471 68.4287 67.2572L66.19 87.2361C64.32 103.917 50.1385 116.297 33.706 116.359ZM32.2531 36.2638C26.1894 36.2866 20.3531 38.3275 15.5387 42.1642C9.89917 46.6619 6.34853 53.0805 5.54164 60.237L3.30281 80.2159C1.47038 96.5421 13.2916 111.314 29.6536 113.143L30.2292 113.205C46.5912 115.033 61.3955 103.238 63.228 86.9117L65.4668 66.933C67.1241 52.1555 56.4268 38.7853 41.6105 37.1317L35.4084 36.439C34.3606 36.3139 33.3003 36.2599 32.2531 36.2638Z" fill="#000072"/>
    <path d="M45.2969 66.6876C47.1789 66.8934 48.4613 69.2558 48.1677 71.9661C47.8741 74.6764 46.1041 76.7085 44.2285 76.5027C42.3466 76.2968 41.0642 73.9343 41.3578 71.2241C41.6514 68.5139 43.415 66.4818 45.2969 66.6876Z" fill="#000072"/>
    <path d="M45.2538 70.6576C45.36 69.6572 44.917 68.7943 44.2573 68.7195C43.5976 68.651 42.9797 69.4016 42.867 70.3956C42.7609 71.3959 43.2038 72.2588 43.8636 72.3337C44.5234 72.4087 45.1412 71.658 45.2538 70.6576Z" fill="white"/>
    <path d="M25.7004 69.7883C25.994 67.078 24.7116 64.7155 22.8297 64.5098C20.9477 64.304 19.1841 66.336 18.8905 69.0463C18.5969 71.7565 19.8793 74.119 21.7613 74.3248C23.6432 74.5305 25.4068 72.4985 25.7004 69.7883Z" fill="#000072"/>
    <path d="M22.7807 68.4817C22.8868 67.4813 22.4439 66.6186 21.7841 66.5435C21.1244 66.4751 20.5065 67.2258 20.3939 68.2198C20.2877 69.22 20.7307 70.0829 21.3905 70.1578C22.0503 70.2328 22.6681 69.482 22.7807 68.4817Z" fill="white"/>
    <path d="M33.1066 80.0663C33.0162 80.0667 32.9257 80.0606 32.8416 80.0545C31.3931 79.9438 30.1415 78.8842 29.3136 77.0748C28.6227 75.5486 28.3052 73.6405 28.447 71.8339C28.4901 71.2853 28.9735 70.8772 29.5167 70.9204L37.8194 71.5599C38.0845 71.5783 38.3307 71.7063 38.4996 71.9057C38.6748 72.105 38.7598 72.3692 38.735 72.6273C38.4511 76.2211 36.0092 80.0553 33.1066 80.0663Z" fill="#000072"/>
    <path d="M29.9268 75.9453C30.7713 75.3229 31.9081 74.9832 33.1175 75.0883C34.4627 75.2058 35.6161 75.8467 36.337 76.747C35.418 78.1956 34.1673 79.1681 32.9062 79.0695C31.5675 78.9714 30.5152 77.6721 29.9268 75.9453Z" fill="#F47DA2"/>
</svg>
