<!--
  - Copyright (c) TIKI Inc.
  - MIT license. See LICENSE file in root directory.
  -->

<svg viewBox="0 0 100 100" xmlns="http://www.w3.org/2000/svg">
    <path d="M0 50C0 77.5703 22.4297 100 50 100C77.5703 100 100 77.5703 100 50C100 22.4297 77.5703 0 50 0C22.4297 0 0 22.4297 0 50Z"
          fill="white" class="background"/>
    <path d="M55.6578 13.3927C52.0447 12.8654 48.9999 9.99494 48.9999 6.34356V6.34356C48.9999 2.82555 51.8253 -0.0894303 55.3235 0.283146C58.4306 0.614067 61.5064 1.23471 64.4982 2.14279C67.4348 3.03417 70.2583 4.18913 72.9405 5.57992C76.148 7.24309 76.8218 11.3815 74.6981 14.3046V14.3046C72.6533 17.119 68.7635 17.7472 65.5957 16.3093C63.9579 15.5659 62.2573 14.9377 60.5042 14.435C58.9141 13.979 57.2939 13.6315 55.6578 13.3927Z"
          fill="currentColor"/>
</svg>
