<svg viewBox="0 0 100 100" xmlns="http://www.w3.org/2000/svg">
    <path d="M50 100C22.4297 100 0 77.5703 0 50C0 22.4297 22.4297 0 50 0C77.5703 0 100 22.4297 100 50C100 77.5703 77.5703 100 50 100ZM50 7.14264C26.3687 7.14264 7.14264 26.3687 7.14264 50C7.14264 73.6313 26.3687 92.8574 50 92.8574C73.6313 92.8574 92.8574 73.6313 92.8574 50C92.8574 26.3687 73.6313 7.14264 50 7.14264Z"
          fill="white" class="background"/>
    <path d="M50 7.14264C26.3687 7.14264 7.14264 26.3687 7.14264 50C7.14264 73.6313 26.3687 92.8574 50 92.8574C73.6313 92.8574 92.8574 73.6313 92.8574 50C92.8574 26.3687 73.6313 7.14264 50 7.14264Z"
          fill="white" class="background"/>
    <path d="M86.89 43.7331C87.4681 47.1606 90.2304 50 93.7063 50V50C97.1822 50 100.042 47.168 99.6093 43.719C96.7778 21.127 78.873 3.22221 56.281 0.390708C52.832 -0.0415527 50 2.81779 50 6.29371V6.29371C50 9.76962 52.8394 12.5319 56.2669 13.11C71.908 15.7478 84.2522 28.092 86.89 43.7331Z"
          fill="currentColor"/>
</svg>
