<!--
  - Copyright (c) TIKI Inc.
  - MIT license. See LICENSE file in root directory.
  -->

<svg viewBox="0 0 100 100" xmlns="http://www.w3.org/2000/svg">
    <path d="M0 50C0 77.5703 22.4297 100 50 100C77.5703 100 100 77.5703 100 50C100 22.4297 77.5703 0 50 0C22.4297 0 0 22.4297 0 50Z"
          fill="white" class="background"/>
    <path d="M55.6578 13.3927C52.0447 12.8654 48.9999 9.99494 48.9999 6.34356V6.34356C48.9999 2.82555 51.8253 -0.0894303 55.3235 0.283146C58.4306 0.614067 61.5064 1.23471 64.4982 2.14279C69.5733 3.68328 74.3103 6.01101 78.5647 8.98272C82.8637 11.9858 86.6716 15.6472 89.8396 19.8188C92.9825 23.9576 95.497 28.5998 97.2378 33.6001C98.5081 37.249 99.344 41.0425 99.7377 44.8826C100.085 48.2672 97.2671 50.999 93.8648 50.999V50.999C90.3661 50.999 87.6014 48.1071 87.077 44.648C86.7077 42.2116 86.0975 39.812 85.2505 37.495C83.8932 33.7817 81.9601 30.3423 79.561 27.2866C77.1523 24.2187 74.2723 21.5362 71.0324 19.35C67.8388 17.1952 64.2938 15.5216 60.5042 14.435C58.9141 13.979 57.2939 13.6315 55.6578 13.3927Z"
          fill="currentColor"/>
</svg>
