<!--
  - Copyright (c) TIKI Inc.
  - MIT license. See LICENSE file in root directory.
  -->

<svg viewBox="0 0 100 100" xmlns="http://www.w3.org/2000/svg">
    <path d="M0 50C0 77.5703 22.4297 100 50 100C77.5703 100 100 77.5703 100 50C100 22.4297 77.5703 0 50 0C22.4297 0 0 22.4297 0 50Z"
          fill="white" class="background"/>
    <path d="M55.6578 13.3927C52.0447 12.8654 48.9999 9.99494 48.9999 6.34356V6.34356C48.9999 2.82555 51.8253 -0.0894303 55.3235 0.283146C58.4306 0.614067 61.5064 1.23471 64.4982 2.14279C69.5733 3.68328 74.3103 6.01101 78.5647 8.98272C82.8637 11.9858 86.6716 15.6472 89.8396 19.8188C92.9825 23.9576 95.497 28.5998 97.2378 33.6001C99.027 38.7394 100 44.2587 100 50C100 50.3338 99.9967 50.6668 99.9902 50.999C99.884 56.3813 98.9232 61.5588 97.2381 66.3991C95.4972 71.3993 92.9825 76.0425 89.8395 80.1813C86.6715 84.3528 82.8636 88.0143 78.5646 91.0173C75.9421 92.8491 73.1367 94.4361 70.1816 95.7449C67.1011 97.1092 63.6657 95.292 62.6246 92.0878V92.0878C61.546 88.7682 63.4594 85.2564 66.5935 83.7198C68.2243 82.9203 69.7886 82.0049 71.2754 80.9846C74.5278 78.7526 77.4105 76.0177 79.8092 72.8938C82.1884 69.7951 84.0928 66.3123 85.411 62.5572C86.6851 58.9272 87.4124 55.04 87.4926 50.999C87.4975 50.7499 87.5 50.5002 87.5 50.25C87.5 45.7721 86.7055 41.4753 85.2505 37.495C83.8932 33.7817 81.9601 30.3423 79.561 27.2866C77.1523 24.2187 74.2723 21.5362 71.0324 19.35C67.8388 17.1952 64.2938 15.5216 60.5042 14.435C58.9141 13.979 57.2939 13.6315 55.6578 13.3927Z"
          fill="currentColor"/>
</svg>
