<svg viewBox="0 0 100 100" xmlns="http://www.w3.org/2000/svg">
    <path d="M50 100C22.4297 100 0 77.5703 0 50C0 22.4297 22.4297 0 50 0C77.5703 0 100 22.4297 100 50C100 77.5703 77.5703 100 50 100ZM50 7.14264C26.3687 7.14264 7.14264 26.3687 7.14264 50C7.14264 73.6313 26.3687 92.8574 50 92.8574C73.6313 92.8574 92.8574 73.6313 92.8574 50C92.8574 26.3687 73.6313 7.14264 50 7.14264Z"
          fill="white" class="background"/>
    <path d="M50 7.14264C26.3687 7.14264 7.14264 26.3687 7.14264 50C7.14264 73.6313 26.3687 92.8574 50 92.8574C73.6313 92.8574 92.8574 73.6313 92.8574 50C92.8574 26.3687 73.6313 7.14264 50 7.14264Z"
          fill="white" class="background"/>
    <path d="M50 93.7063C50 97.1822 52.832 100.042 56.281 99.6093C80.9304 96.5199 100 75.4869 100 50C100 24.5131 80.9304 3.48007 56.281 0.390708C52.832 -0.0415527 50 2.81779 50 6.29371V6.29371C50 9.76962 52.8394 12.5319 56.2669 13.11C73.9458 16.0915 87.4126 31.4731 87.4126 50C87.4126 68.5269 73.9458 83.9085 56.2669 86.89C52.8394 87.4681 50 90.2304 50 93.7063V93.7063Z"
          fill="currentColor"/>
</svg>
