<!--
  - Copyright (c) TIKI Inc.
  - MIT license. See LICENSE file in root directory.
  -->

<svg viewBox="0 0 100 100" xmlns="http://www.w3.org/2000/svg">
    <path d="M0 50C0 77.5703 22.4297 100 50 100C77.5703 100 100 77.5703 100 50C100 22.4297 77.5703 0 50 0C22.4297 0 0 22.4297 0 50Z"
          fill="white" class="background"/>
    <path d="M55.6578 13.3927C52.0447 12.8654 48.9999 9.99494 48.9999 6.34356V6.34356C48.9999 2.82555 51.8253 -0.0894303 55.3235 0.283146C58.4306 0.614067 61.5064 1.23471 64.4982 2.14279C69.5733 3.68328 74.3103 6.01101 78.5647 8.98272C82.8637 11.9858 86.6716 15.6472 89.8396 19.8188C92.9825 23.9576 95.497 28.5998 97.2378 33.6001C99.027 38.7394 100 44.2587 100 50C100 50.3338 99.9967 50.6668 99.9902 50.999C99.884 56.3813 98.9229 61.5597 97.2378 66.4C95.4969 71.4003 92.9825 76.0425 89.8395 80.1813C86.6715 84.3528 82.8636 88.0143 78.5646 91.0173C74.3102 93.989 69.5742 96.3165 64.4991 97.8569C59.9086 99.2503 55.0397 100 50 100C49.6662 100 49.3331 99.9967 49.0009 99.9902C45.8087 99.9272 42.6887 99.5636 39.6682 98.9266C36.242 98.204 34.4663 94.5747 35.5484 91.2445V91.2445V91.2445C36.6123 87.9701 40.1829 86.2843 43.5703 86.9001C45.3406 87.2219 47.154 87.4181 49.0009 87.4793C49.4156 87.4931 49.832 87.5 50.25 87.5C53.8591 87.5 57.3509 86.9838 60.6536 86.0219C64.4835 84.9062 68.0604 83.1908 71.2754 80.9846C74.5278 78.7526 77.4105 76.0177 79.8092 72.8938C82.1884 69.7951 84.0931 66.3114 85.4113 62.5563C86.6854 58.9263 87.4124 55.04 87.4926 50.999C87.4975 50.7499 87.5 50.5002 87.5 50.25C87.5 45.7721 86.7055 41.4753 85.2505 37.495C83.8932 33.7817 81.9601 30.3423 79.561 27.2866C77.1523 24.2187 74.2723 21.5362 71.0324 19.35C67.8388 17.1952 64.2938 15.5216 60.5042 14.435C58.9141 13.979 57.2939 13.6315 55.6578 13.3927Z"
          fill="currentColor"/>
</svg>
