<!--
  - Copyright (c) TIKI Inc.
  - MIT license. See LICENSE file in root directory.
  -->

<svg viewBox="0 0 100 100" xmlns="http://www.w3.org/2000/svg">
    <path d="M0 50C0 77.5703 22.4297 100 50 100C77.5703 100 100 77.5703 100 50C100 22.4297 77.5703 0 50 0C22.4297 0 0 22.4297 0 50Z"
          fill="white" class="background"/>
    <path d="M62.2413 9.08895C61.2723 12.0712 58.1141 13.7011 55.0037 13.3031V13.3031C51.7399 12.8856 48.9999 10.2941 48.9999 7.00378V6.34356C48.9999 2.82555 51.8253 -0.0894287 55.3235 0.283148C56.2307 0.37977 57.1353 0.501092 58.0358 0.647056C61.6339 1.23024 63.5733 4.9894 62.4469 8.45605L62.2413 9.08895Z"
          fill="currentColor"/>
</svg>
