<!--
  - Copyright (c) TIKI Inc.
  - MIT license. See LICENSE file in root directory.
  -->

<svg viewBox="0 0 100 100" xmlns="http://www.w3.org/2000/svg">
    <path d="M0 50C0 77.5703 22.4297 100 50 100C77.5703 100 100 77.5703 100 50C100 22.4297 77.5703 0 50 0C22.4297 0 0 22.4297 0 50Z"
          fill="white" class="background"/>
    <path d="M55.6579 13.3927C52.0448 12.8654 48.9999 9.99494 48.9999 6.34356V6.34356C48.9999 2.82555 51.8254 -0.0894303 55.3236 0.283146C58.4307 0.614067 61.5064 1.23471 64.4983 2.14279C69.5733 3.68328 74.3104 6.01101 78.5647 8.98272C82.8637 11.9858 86.6716 15.6472 89.8396 19.8188C92.9826 23.9576 95.497 28.5998 97.2379 33.6001C99.0271 38.7394 100 44.2587 100 50C100 50.3338 99.9968 50.6668 99.9902 50.999C99.8841 56.3813 98.9229 61.5597 97.2379 66.4C95.497 71.4003 92.9825 76.0425 89.8396 80.1813C86.6716 84.3528 82.8637 88.0143 78.5646 91.0173C74.3103 93.989 69.5733 96.3167 64.4982 97.8572C59.9076 99.2505 55.0397 100 50 100C49.6662 100 49.3332 99.9967 49.0009 99.9902C43.6187 99.884 38.4412 98.9232 33.601 97.2381C28.6007 95.4973 23.9584 92.9831 19.8196 89.8401C17.3496 87.9644 15.0583 85.8643 12.9767 83.5707C10.5856 80.9362 11.2887 76.8906 14.167 74.7994V74.7994V74.7994C17.0003 72.7409 20.9463 73.4852 23.3701 76.0131C24.5901 77.2855 25.8993 78.4718 27.2874 79.5616C30.3431 81.9607 33.7827 83.8935 37.4959 85.2509C41.1044 86.5699 44.9732 87.3459 49.0009 87.4793C49.4156 87.4931 49.8321 87.5 50.25 87.5C53.8591 87.5 57.351 86.9838 60.6537 86.0219C64.4836 84.9062 68.0605 83.1908 71.2754 80.9846C74.5278 78.7526 77.4106 76.0177 79.8092 72.8938C82.1885 69.7951 84.0929 66.3123 85.411 62.5572C86.6852 58.9272 87.4124 55.04 87.4926 50.999C87.4976 50.7499 87.5 50.5002 87.5 50.25C87.5 45.7721 86.7055 41.4753 85.2506 37.495C83.8932 33.7817 81.9602 30.3423 79.5611 27.2866C77.1523 24.2187 74.2723 21.5362 71.0324 19.35C67.8388 17.1952 64.2938 15.5216 60.5043 14.435C58.9141 13.979 57.2939 13.6315 55.6579 13.3927Z"
          fill="currentColor"/>
</svg>
