<svg viewBox="0 0 100 100" xmlns="http://www.w3.org/2000/svg">
    <path d="M50 100C22.4297 100 0 77.5703 0 50C0 22.4297 22.4297 0 50 0C77.5703 0 100 22.4297 100 50C100 77.5703 77.5703 100 50 100ZM50 7.14264C26.3687 7.14264 7.14264 26.3687 7.14264 50C7.14264 73.6313 26.3687 92.8574 50 92.8574C73.6313 92.8574 92.8574 73.6313 92.8574 50C92.8574 26.3687 73.6313 7.14264 50 7.14264Z"
          fill="white" class="background"/>
    <path d="M50 7.14264C26.3687 7.14264 7.14264 26.3687 7.14264 50C7.14264 73.6313 26.3687 92.8574 50 92.8574C73.6313 92.8574 92.8574 73.6313 92.8574 50C92.8574 26.3687 73.6313 7.14264 50 7.14264Z"
          fill="white" class="background"/>
    <path d="M100 50C100 77.6142 77.6142 100 50 100C24.5131 100 3.48007 80.9304 0.390709 56.281C-0.0415526 52.832 2.81779 50 6.29371 50V50C9.76962 50 12.5319 52.8394 13.11 56.2669C16.0915 73.9458 31.4731 87.4126 50 87.4126C70.6624 87.4126 87.4126 70.6624 87.4126 50C87.4126 31.4731 73.9458 16.0915 56.2669 13.11C52.8394 12.5319 50 9.76962 50 6.29371V6.29371C50 2.81779 52.832 -0.0415527 56.281 0.390708C80.9304 3.48007 100 24.5131 100 50Z"
          fill="currentColor"/>
</svg>
