<!--
  - Copyright (c) TIKI Inc.
  - MIT license. See LICENSE file in root directory.
  -->

<svg viewBox="0 0 100 100" xmlns="http://www.w3.org/2000/svg">
    <path d="M0 50C0 77.5703 22.4297 100 50 100C77.5703 100 100 77.5703 100 50C100 22.4297 77.5703 0 50 0C22.4297 0 0 22.4297 0 50Z"
          fill="white" class="background"/>
    <path d="M55.6578 13.3927C52.0447 12.8654 48.9999 9.99494 48.9999 6.34356V6.34356C48.9999 2.82555 51.8253 -0.0894303 55.3235 0.283146C58.4306 0.614067 61.5064 1.23471 64.4982 2.14279C69.5733 3.68328 74.3103 6.01101 78.5647 8.98272C82.8637 11.9858 86.6716 15.6472 89.8396 19.8188C92.9825 23.9576 95.497 28.5998 97.2378 33.6001C99.027 38.7394 100 44.2587 100 50C100 50.3338 99.9967 50.6668 99.9902 50.999C99.884 56.3813 98.9229 61.5597 97.2378 66.4C95.4969 71.4003 92.9831 76.0417 89.8401 80.1805C86.6722 84.352 82.8636 88.0143 78.5646 91.0173C74.3102 93.989 69.5742 96.3165 64.4991 97.8569C59.9086 99.2503 55.0397 100 50 100C49.6662 100 49.3331 99.9967 49.0009 99.9902C43.6186 99.884 38.4412 98.9232 33.6009 97.2381C28.6007 95.4973 23.9583 92.9831 19.8195 89.8401C15.648 86.6722 11.9863 82.8645 8.98331 78.5655C6.01162 74.3112 3.6836 69.5743 2.14311 64.4993C0.842131 60.213 0.102199 55.6839 0.00985041 51C0.00330682 50.6678 0 50.3338 0 50C0 44.9603 0.749462 40.0923 2.14279 35.5018C3.02341 32.6006 4.16129 29.8099 5.52967 27.1567C7.21335 23.8921 11.4214 23.2072 14.3931 25.3662V25.3662C17.2766 27.4612 17.8993 31.4571 16.4059 34.6933C15.6857 36.2538 15.0704 37.8722 14.569 39.5393C13.5485 42.9327 13 46.5285 13 50.25C13 50.5002 13.0025 50.7509 13.0074 51C13.0727 54.2892 13.5667 57.4761 14.4353 60.5053C15.5219 64.2948 17.1958 67.8397 19.3506 71.0332C21.5368 74.2731 24.2195 77.1529 27.2873 79.5616C30.343 81.9607 33.7826 83.8935 37.4958 85.2509C41.1044 86.5699 44.9732 87.3459 49.0009 87.4793C49.4156 87.4931 49.832 87.5 50.25 87.5C53.8591 87.5 57.3509 86.9838 60.6536 86.0219C64.4835 84.9062 68.0613 83.1903 71.2762 80.984C74.5286 78.752 77.4105 76.0177 79.8092 72.8938C82.1884 69.7951 84.0928 66.3123 85.411 62.5572C86.6851 58.9272 87.4124 55.04 87.4926 50.999C87.4975 50.7499 87.5 50.5002 87.5 50.25C87.5 45.7721 86.7055 41.4753 85.2505 37.495C83.8932 33.7817 81.9601 30.3423 79.561 27.2866C77.1523 24.2187 74.2723 21.5362 71.0324 19.35C67.8388 17.1952 64.2938 15.5216 60.5042 14.435C58.9141 13.979 57.2939 13.6315 55.6578 13.3927Z"
          fill="currentColor"/>
</svg>
