<!--
  - Copyright (c) TIKI Inc.
  - MIT license. See LICENSE file in root directory.
  -->

<svg viewBox="0 0 100 100" xmlns="http://www.w3.org/2000/svg">
    <path d="M0 50C0 77.5703 22.4297 100 50 100C77.5703 100 100 77.5703 100 50C100 22.4297 77.5703 0 50 0C22.4297 0 0 22.4297 0 50Z"
          fill="white" class="background"/>
    <path d="M60.5042 14.435C58.9141 13.979 57.2939 13.6315 55.6578 13.3927C52.0447 12.8654 48.9999 9.99494 48.9999 6.34356V6.34356C48.9999 2.82555 51.8253 -0.0894303 55.3235 0.283146C58.4306 0.614066 61.5064 1.23471 64.4982 2.14279C69.5733 3.68328 74.3103 6.01101 78.5647 8.98272C82.8637 11.9858 86.6716 15.6472 89.8396 19.8188C92.9825 23.9576 95.497 28.5998 97.2378 33.6001C99.027 38.7394 100 44.2587 100 50C100 50.3338 99.9967 50.6668 99.9902 50.999C99.884 56.3813 98.9229 61.5597 97.2378 66.4C95.4969 71.4003 92.9825 76.0425 89.8395 80.1813C86.6715 84.3528 82.8644 88.0137 78.5654 91.0167C74.3111 93.9884 69.5742 96.3165 64.4991 97.8569C59.9086 99.2503 55.0397 100 50 100C49.6662 100 49.3331 99.9967 49.0009 99.9902C43.6186 99.884 38.4412 98.9232 33.6009 97.2381C28.6007 95.4973 23.9575 92.9825 19.8187 89.8395C15.6472 86.6716 11.9858 82.8637 8.98274 78.5647C6.01104 74.3104 3.6836 69.5743 2.14311 64.4993C0.842131 60.213 0.102199 55.6839 0.00985041 51C0.00330682 50.6678 0 50.3338 0 50C0 44.9603 0.749462 40.0923 2.14279 35.5018C3.68328 30.4267 6.01101 25.6897 8.98271 21.4354C11.9857 17.1364 15.6472 13.3285 19.8187 10.1605C22.2445 8.31841 24.8435 6.6921 27.5861 5.31092C30.7908 3.69708 34.512 5.56681 35.6205 8.97933V8.97933V8.97933C36.7463 12.445 34.8759 16.1268 31.7181 17.9453C30.2527 18.7892 28.8499 19.7298 27.5185 20.7584C24.4603 23.121 21.7782 25.9479 19.5787 29.1326C17.4018 32.2849 15.6968 35.7895 14.569 39.5393C13.5485 42.9327 13 46.5285 13 50.25C13 50.5002 13.0025 50.7509 13.0074 51C13.0727 54.2892 13.5665 57.4752 14.435 60.5043C15.5217 64.2938 17.1958 67.8397 19.3506 71.0332C21.5368 74.2731 24.2195 77.1529 27.2873 79.5616C30.343 81.9607 33.7826 83.8935 37.4958 85.2509C41.1044 86.5699 44.9732 87.3459 49.0009 87.4793C49.4156 87.4931 49.832 87.5 50.25 87.5C53.8591 87.5 57.3509 86.9838 60.6536 86.0219C64.4835 84.9062 68.0604 83.1908 71.2754 80.9846C74.5278 78.7526 77.4105 76.0177 79.8092 72.8938C82.1884 69.7951 84.0928 66.3123 85.411 62.5572C86.6851 58.9272 87.4124 55.04 87.4926 50.999C87.4975 50.7499 87.5 50.5002 87.5 50.25C87.5 45.7721 86.7055 41.4753 85.2505 37.495C83.8932 33.7817 81.9601 30.3423 79.561 27.2866C77.1523 24.2187 74.2723 21.5362 71.0324 19.35C67.8388 17.1952 64.2938 15.5216 60.5042 14.435Z"
          fill="currentColor"/>
</svg>
