<svg width="36" height="36" viewBox="0 0 36 36" fill="none" xmlns="http://www.w3.org/2000/svg">
<g clip-path="url(#clip0_1119_531)">
<path d="M18 36C8.07468 36 0 27.9253 0 18C0 8.07468 8.07468 0 18 0C27.9253 0 36 8.07468 36 18C36 27.9253 27.9253 36 18 36ZM18 2.57135C9.49274 2.57135 2.57135 9.49274 2.57135 18C2.57135 26.5073 9.49274 33.4286 18 33.4286C26.5073 33.4286 33.4286 26.5073 33.4286 18C33.4286 9.49274 26.5073 2.57135 18 2.57135Z" fill="#00B272"/>
<path d="M18 2.57135C9.49274 2.57135 2.57135 9.49274 2.57135 18C2.57135 26.5073 9.49274 33.4286 18 33.4286C26.5073 33.4286 33.4286 26.5073 33.4286 18C33.4286 9.49274 26.5073 2.57135 18 2.57135Z" fill="white"/>
<path d="M17.8581 9.71997C15.4039 9.71997 13.4072 11.7166 13.4072 14.1709C13.4072 16.6251 15.4039 18.6217 17.8581 18.6217C20.3123 18.6217 22.309 16.6251 22.309 14.1709C22.309 11.7166 20.3123 9.71997 17.8581 9.71997Z" fill="#00B272"/>
<path d="M23.3958 21.5295C22.1773 20.2922 20.5619 19.6108 18.8472 19.6108H16.869C15.1543 19.6108 13.5389 20.2922 12.3203 21.5295C11.1077 22.7607 10.4399 24.3859 10.4399 26.1058C10.4399 26.379 10.6614 26.6004 10.9345 26.6004H24.7817C25.0548 26.6004 25.2762 26.379 25.2762 26.1058C25.2762 24.3859 24.6084 22.7607 23.3958 21.5295Z" fill="#00B272"/>
</g>
<defs>
</defs>
</svg>
