<svg width="32" height="32" viewBox="0 0 32 32" fill="none" xmlns="http://www.w3.org/2000/svg">
<g clip-path="url(#clip0_978_14476)">
<path d="M16 32C7.17749 32 0 24.8225 0 16C0 7.17749 7.17749 0 16 0C24.8225 0 32 7.17749 32 16C32 24.8225 24.8225 32 16 32ZM16 2.28564C8.43799 2.28564 2.28564 8.43799 2.28564 16C2.28564 23.562 8.43799 29.7144 16 29.7144C23.562 29.7144 29.7144 23.562 29.7144 16C29.7144 8.43799 23.562 2.28564 16 2.28564Z" fill="white"/>
<path d="M16 2.28564C8.43799 2.28564 2.28564 8.43799 2.28564 16C2.28564 23.562 8.43799 29.7144 16 29.7144C23.562 29.7144 29.7144 23.562 29.7144 16C29.7144 8.43799 23.562 2.28564 16 2.28564Z" fill="black" fill-opacity="0.6"/>
<path d="M16.0002 25.2238C16.3159 25.224 16.6014 25.0962 16.8083 24.8894C17.0151 24.6826 17.143 24.3969 17.1428 24.0811L17.1428 17.1426L24.0813 17.1426C24.397 17.1428 24.6827 17.0149 24.8895 16.808C25.0963 16.6012 25.2241 16.3157 25.2239 15.9999C25.2241 15.3686 24.7127 14.8573 24.0813 14.8573H17.1428L17.1428 7.91886C17.143 7.28753 16.6313 6.77619 16.0002 6.77619C15.3688 6.77602 14.8575 7.28736 14.8575 7.91886L14.8575 14.8573L7.91896 14.8573C7.28764 14.8571 6.7763 15.3688 6.7763 15.9999C6.77613 16.6313 7.28747 17.1426 7.91896 17.1426L14.8575 17.1426L14.8575 24.0811C14.8573 24.7125 15.3688 25.224 16.0002 25.2238Z" fill="white"/>
</g>
<defs>
<clipPath id="clip0_978_14476">
<rect width="32" height="32" fill="white"/>
</clipPath>
</defs>
</svg>
