<svg width="32" height="32" viewBox="0 0 32 32" fill="none" xmlns="http://www.w3.org/2000/svg">
<g clip-path="url(#clip0_978_14459)">
<path d="M16 32C7.17749 32 0 24.8225 0 16C0 7.17749 7.17749 0 16 0C24.8225 0 32 7.17749 32 16C32 24.8225 24.8225 32 16 32ZM16 2.28564C8.43799 2.28564 2.28564 8.43799 2.28564 16C2.28564 23.562 8.43799 29.7144 16 29.7144C23.562 29.7144 29.7144 23.562 29.7144 16C29.7144 8.43799 23.562 2.28564 16 2.28564Z" fill="white"/>
<path d="M16 2.28564C8.43799 2.28564 2.28564 8.43799 2.28564 16C2.28564 23.562 8.43799 29.7144 16 29.7144C23.562 29.7144 29.7144 23.562 29.7144 16C29.7144 8.43799 23.562 2.28564 16 2.28564Z" fill="#C73000"/>
<path d="M15.9342 20.5814C16.5086 20.5814 16.9868 20.1413 17.0352 19.5688L17.782 10.6495C17.8255 10.1322 17.6501 9.62078 17.2989 9.23884C16.9482 8.85738 16.453 8.64001 15.9342 8.64001C15.4155 8.64001 14.9202 8.85738 14.5695 9.23884C14.2183 9.62078 14.043 10.1322 14.0865 10.6495L14.8333 19.5688C14.8817 20.1413 15.3598 20.5814 15.9342 20.5814Z" fill="white"/>
<path d="M15.9342 21.2378C15.2694 21.2378 14.7307 21.7765 14.7307 22.4414C14.7307 23.1061 15.2694 23.6448 15.9342 23.6448C16.599 23.6448 17.1378 23.1061 17.1378 22.4414C17.1378 21.7765 16.599 21.2378 15.9342 21.2378Z" fill="white"/>
</g>
<defs>
<clipPath id="clip0_978_14459">
<rect width="32" height="32" fill="white"/>
</clipPath>
</defs>
</svg>
