<svg width="18" height="18" viewBox="0 0 18 18" fill="none" xmlns="http://www.w3.org/2000/svg">
<g clip-path="url(#clip0_1119_541)">
<path d="M17.0886 5.52054C16.9694 5.40052 16.8276 5.30534 16.6714 5.24049C16.5152 5.17568 16.3477 5.1425 16.1786 5.14286H13.6071V4.5C13.6071 3.30654 13.133 2.16194 12.2891 1.31802C11.4452 0.474107 10.3006 0 9.10713 0C7.91366 0 6.76905 0.474107 5.92514 1.31802C5.08123 2.16194 4.60713 3.30654 4.60713 4.5V5.14286H2.03571C1.69472 5.14286 1.36769 5.2783 1.12658 5.51945C0.885458 5.76056 0.75 6.08758 0.75 6.42857V15.1071C0.75 16.6741 2.07589 18 3.64284 18H14.5714C15.3294 18.0002 16.0574 17.7039 16.5996 17.1743C16.8726 16.914 17.0898 16.601 17.2385 16.2544C17.3871 15.9077 17.4639 15.5345 17.4643 15.1574V6.42857C17.4648 6.2599 17.4319 6.0928 17.3674 5.93695C17.3029 5.78105 17.2082 5.63954 17.0886 5.52054ZM5.89284 4.5C5.89284 3.64753 6.23151 2.82994 6.83431 2.22716C7.4371 1.62436 8.25466 1.28571 9.10713 1.28571C9.95964 1.28571 10.7772 1.62436 11.38 2.22716C11.9828 2.82994 12.3214 3.64753 12.3214 4.5V5.14286H5.89284V4.5ZM13.6071 8.35714C13.6071 9.55061 13.133 10.6952 12.2891 11.5391C11.4452 12.383 10.3006 12.8571 9.10713 12.8571C7.91366 12.8571 6.76905 12.383 5.92514 11.5391C5.08123 10.6952 4.60713 9.55061 4.60713 8.35714V7.71429C4.60713 7.54381 4.67487 7.38028 4.79544 7.25971C4.91598 7.13917 5.07951 7.07143 5.24998 7.07143C5.4205 7.07143 5.58399 7.13917 5.70456 7.25971C5.82514 7.38028 5.89284 7.54381 5.89284 7.71429V8.35714C5.89284 9.20961 6.23151 10.0272 6.83431 10.63C7.4371 11.2328 8.25466 11.5714 9.10713 11.5714C9.95964 11.5714 10.7772 11.2328 11.38 10.63C11.9828 10.0272 12.3214 9.20961 12.3214 8.35714V7.71429C12.3214 7.54381 12.3892 7.38028 12.5097 7.25971C12.6303 7.13917 12.7938 7.07143 12.9643 7.07143C13.1348 7.07143 13.2983 7.13917 13.4188 7.25971C13.5394 7.38028 13.6071 7.54381 13.6071 7.71429V8.35714Z" fill="#00B272"/>
</g>
<defs>
<clipPath id="clip0_1119_541">
<rect width="18" height="18" fill="white"/>
</clipPath>
</defs>
</svg>
