<!--
  - Copyright (c) TIKI Inc.
  - MIT license. See LICENSE file in root directory.
  -->

<svg viewBox="0 0 100 100" xmlns="http://www.w3.org/2000/svg">
    <path d="M50 100C22.4297 100 0 77.5703 0 50C0 22.4297 22.4297 0 50 0C77.5703 0 100 22.4297 100 50C100 77.5703 77.5703 100 50 100Z"
          fill="white" class="background"/>
    <path d="M38.8255 72.9401C37.8025 72.9379 36.8213 72.5342 36.0929 71.8159L20.248 56.2013C19.5761 55.4634 19.2124 54.4962 19.2315 53.4984C19.2506 52.5006 19.6511 51.5481 20.3508 50.8364C21.0504 50.1248 21.996 49.7081 22.9933 49.6721C23.9906 49.636 24.9639 49.9832 25.7131 50.6425L38.7903 63.5245L74.8601 27.2674C75.2191 26.8937 75.649 26.5952 76.1247 26.3894C76.6003 26.1836 77.1122 26.0745 77.6304 26.0686C78.1487 26.0627 78.6629 26.1601 79.1431 26.355C79.6233 26.5499 80.0599 26.8385 80.4274 27.2039C80.7949 27.5694 81.086 28.0043 81.2836 28.4834C81.4813 28.9625 81.5815 29.4762 81.5785 29.9944C81.5755 30.5127 81.4694 31.0252 81.2663 31.502C81.0632 31.9788 80.7671 32.4104 80.3954 32.7716L60.9943 52.2898L41.5931 71.8081C41.2289 72.1694 40.7969 72.4554 40.322 72.6496C39.8471 72.8439 39.3386 72.9426 38.8255 72.9401Z"
          fill="currentColor"/>
</svg>
