<svg width="32" height="32" viewBox="0 0 32 32" fill="none" xmlns="http://www.w3.org/2000/svg">
<g clip-path="url(#clip0_986_453)">
<path d="M16 32C7.17749 32 0 24.8225 0 16C0 7.17749 7.17749 0 16 0C24.8225 0 32 7.17749 32 16C32 24.8225 24.8225 32 16 32ZM16 2.28564C8.43799 2.28564 2.28564 8.43799 2.28564 16C2.28564 23.562 8.43799 29.7144 16 29.7144C23.562 29.7144 29.7144 23.562 29.7144 16C29.7144 8.43799 23.562 2.28564 16 2.28564Z" fill="#1C0000"/>
<path d="M16 2.28564C8.43799 2.28564 2.28564 8.43799 2.28564 16C2.28564 23.562 8.43799 29.7144 16 29.7144C23.562 29.7144 29.7144 23.562 29.7144 16C29.7144 8.43799 23.562 2.28564 16 2.28564Z" fill="white"/>
<path d="M21.7143 22.8573C21.4218 22.8573 21.1293 22.7457 20.9062 22.5223L9.47772 11.0938C9.03119 10.6473 9.03119 9.92416 9.47772 9.47787C9.92401 9.03159 10.6474 9.03134 11.0937 9.47787L22.5222 20.9063C22.9687 21.3529 22.9687 22.076 22.5222 22.5223C22.299 22.7457 22.0068 22.8573 21.7143 22.8573Z" fill="#1C0000"/>
<path d="M10.2856 22.8571C9.9931 22.8571 9.70087 22.7455 9.47772 22.5222C9.03119 22.0759 9.03119 21.3525 9.47772 20.9062L20.9062 9.47772C21.3527 9.03119 22.0759 9.03119 22.5222 9.47772C22.9684 9.92401 22.9687 10.6474 22.5222 11.0937L11.0937 22.5222C10.8705 22.7455 10.5781 22.8571 10.2856 22.8571Z" fill="#1C0000"/>
</g>
<defs>
<clipPath id="clip0_986_453">
<rect width="32" height="32" fill="white"/>
</clipPath>
</defs>
</svg>
