<svg viewBox="0 0 100 100" xmlns="http://www.w3.org/2000/svg">
    <path d="M50 100C22.4297 100 0 77.5703 0 50C0 22.4297 22.4297 0 50 0C77.5703 0 100 22.4297 100 50C100 77.5703 77.5703 100 50 100ZM50 7.14264C26.3687 7.14264 7.14264 26.3687 7.14264 50C7.14264 73.6313 26.3687 92.8574 50 92.8574C73.6313 92.8574 92.8574 73.6313 92.8574 50C92.8574 26.3687 73.6313 7.14264 50 7.14264Z"
          fill="white" class="background"/>
    <path d="M50 7.14264C26.3687 7.14264 7.14264 26.3687 7.14264 50C7.14264 73.6313 26.3687 92.8574 50 92.8574C73.6313 92.8574 92.8574 73.6313 92.8574 50C92.8574 26.3687 73.6313 7.14264 50 7.14264Z"
          fill="white" class="background"/>
    <path d="M27.2133 71.8097C27.9762 72.5734 28.9753 72.9549 29.9753 72.9549C30.9752 72.9549 31.9751 72.5734 32.738 71.8097L49.5117 55.0361L66.285 71.8094C67.0479 72.5732 68.0478 72.9546 69.0478 72.9546C70.0477 72.9546 71.0468 72.5732 71.8097 71.8094C73.3363 70.2837 73.3363 67.8114 71.8097 66.2848L55.0363 49.5114L71.8097 32.738C73.3363 31.2122 73.3355 28.7391 71.8097 27.2133C70.2839 25.6867 67.8116 25.6867 66.285 27.2133L49.5116 43.9867L32.738 27.2131C31.2122 25.6865 28.7391 25.6873 27.2133 27.2131C25.6867 28.7389 25.6867 31.2111 27.2133 32.7378L43.987 49.5114L27.2133 66.285C25.6867 67.8108 25.6867 70.2839 27.2133 71.8097Z"
          fill="currentColor"/>
</svg>
