<svg width="18" height="18" viewBox="0 0 18 18" fill="none" xmlns="http://www.w3.org/2000/svg">
<g clip-path="url(#clip0_1119_598)">
<path d="M15.3749 2.65224C13.6336 0.911179 11.333 0 9.03251 0C6.73198 0 4.4313 0.911179 2.69011 2.65224C-0.849827 6.19231 -0.849827 11.7971 2.69011 15.3371C4.44201 17.0888 6.73198 18 9.03251 18C11.333 18 13.623 17.0888 15.3749 15.3371C18.9149 11.7971 18.9149 6.19231 15.3749 2.65224ZM4.17807 4.14034C5.5184 2.81058 7.27017 2.08946 9.03251 2.08946C10.415 2.08946 11.8079 2.54677 13.0111 3.40164L9.03251 7.38007L3.43937 12.9732C1.45854 10.1743 1.74885 6.58026 4.17807 4.14034ZM13.8868 13.8491C12.5466 15.1788 10.7949 15.9 9.03251 15.9C7.65002 15.9 6.25709 15.4427 5.05395 14.5878L14.6257 5.01622C16.6063 7.81499 16.3162 11.409 13.8868 13.8491Z" fill="#C73000"/>
</g>
<defs>
<clipPath id="clip0_1119_598">
<rect width="18" height="18" fill="white"/>
</clipPath>
</defs>
</svg>
