<svg width="19" height="18" viewBox="0 0 19 18" fill="none" xmlns="http://www.w3.org/2000/svg">
<g clip-path="url(#clip0_1119_573)">
<path d="M5 10.2856H1.14286C0.787817 10.2856 0.5 10.5735 0.5 10.9285V17.3571C0.5 17.7121 0.787817 17.9999 1.14286 17.9999H5C5.35504 17.9999 5.64286 17.7121 5.64286 17.3571V10.9285C5.64286 10.5735 5.35504 10.2856 5 10.2856Z" fill="#00B272"/>
<path d="M17.8572 5.14282H14C13.645 5.14282 13.3572 5.43064 13.3572 5.78568V17.3571C13.3572 17.7121 13.645 18 14 18H17.8572C18.2122 18 18.5 17.7121 18.5 17.3571V5.78568C18.5 5.43064 18.2122 5.14282 17.8572 5.14282Z" fill="#00B272"/>
<path d="M11.4285 0H7.57132C7.21628 0 6.92847 0.287817 6.92847 0.642857V17.3571C6.92847 17.7122 7.21628 18 7.57132 18H11.4285C11.7835 18 12.0713 17.7122 12.0713 17.3571V0.642857C12.0713 0.287817 11.7835 0 11.4285 0Z" fill="#00B272"/>
</g>
<defs>
<clipPath id="clip0_1119_573">
<rect width="18" height="18" fill="white" transform="translate(0.5)"/>
</clipPath>
</defs>
</svg>
