<svg width="18" height="18" viewBox="0 0 18 18" fill="none" xmlns="http://www.w3.org/2000/svg">
<path d="M17.626 13.9794L11.2675 2.29077C10.2459 0.570887 7.7555 0.568602 6.73253 2.29077L0.374305 13.9794C-0.670047 15.7368 0.594348 17.9623 2.64125 17.9623H15.3585C17.4037 17.9623 18.6704 15.7386 17.626 13.9794ZM9 15.8529C8.41858 15.8529 7.94531 15.3796 7.94531 14.7982C7.94531 14.2168 8.41858 13.7435 9 13.7435C9.58141 13.7435 10.0547 14.2168 10.0547 14.7982C10.0547 15.3796 9.58141 15.8529 9 15.8529ZM10.0547 11.6341C10.0547 12.2156 9.58141 12.6888 9 12.6888C8.41858 12.6888 7.94531 12.2156 7.94531 11.6341V6.3607C7.94531 5.77929 8.41858 5.30601 9 5.30601C9.58141 5.30601 10.0547 5.77929 10.0547 6.3607V11.6341Z" fill="black" fill-opacity="0.6"/>
</svg>
