<svg width="18" height="18" viewBox="0 0 18 18" fill="none" xmlns="http://www.w3.org/2000/svg">
<path fill-rule="evenodd" clip-rule="evenodd" d="M7.5385 1.05019C7.53846 1.04628 7.53843 1.04238 7.53843 1.03846C7.53843 0.464935 8.00337 0 8.57689 0C9.15042 0 9.61535 0.46493 9.61536 1.03845H9.61542V7.61538C9.61542 7.80645 9.7705 7.96153 9.96157 7.96153C10.1527 7.96153 10.3077 7.80645 10.3077 7.61538V2.42725C10.3077 2.42587 10.3077 2.42449 10.3077 2.42311C10.3077 1.84958 10.7727 1.38464 11.3462 1.38464C11.9197 1.38464 12.3846 1.84956 12.3846 2.42307H12.3847V11.0769L13.7866 9.15853C14.202 8.51814 15.0127 8.30353 15.6067 8.67045C16.1986 9.04568 16.3453 9.86399 15.9355 10.5023C15.9355 10.5023 13.6744 13.9244 12.7107 15.3893C11.747 16.8542 10.1859 18 7.26642 18C2.43273 18 2.00004 14.2671 2.00004 13.1538V3.81858C2 3.81497 1.99998 3.81136 1.99998 3.80775C1.99998 3.23422 2.46492 2.76929 3.03844 2.76929C3.61195 2.76929 4.07687 3.23419 4.0769 3.80768H4.07696V8.30768C4.07696 8.49876 4.23204 8.65384 4.42311 8.65384C4.61419 8.65384 4.76927 8.49876 4.76927 8.30768V1.73076C4.76927 1.73075 4.76927 1.73073 4.76927 1.73072C4.76927 1.1572 5.2342 0.692261 5.80773 0.692261C6.38126 0.692261 6.84619 1.1572 6.84619 1.73072C6.84619 1.7312 6.84619 1.73167 6.84619 1.73214V7.61538C6.84619 7.80645 7.00127 7.96153 7.19234 7.96153C7.38342 7.96153 7.5385 7.80645 7.5385 7.61538V1.05019Z" fill="black" fill-opacity="0.6"/>
</svg>
