<svg width="18" height="18" viewBox="0 0 18 18" fill="none" xmlns="http://www.w3.org/2000/svg">
<path fill-rule="evenodd" clip-rule="evenodd" d="M17.0811 13.2688C17.0806 13.6944 16.9113 14.1024 16.6104 14.4033C16.3095 14.7042 15.9015 14.8735 15.4759 14.874H2.5241C2.09853 14.8735 1.69053 14.7042 1.38961 14.4033C1.08868 14.1024 0.919406 13.6944 0.918914 13.2688V4.77434C0.919406 4.34876 1.08868 3.94076 1.38961 3.63984C1.69053 3.33891 2.09853 3.16964 2.5241 3.16915H15.4759C15.9015 3.16964 16.3095 3.33891 16.6104 3.63984C16.9113 3.94076 17.0806 4.34876 17.0811 4.77434V13.2688ZM6.69647 8.66975C6.35043 8.90096 5.94361 9.02437 5.52744 9.02437C4.96958 9.02369 4.43476 8.80178 4.0403 8.40732C3.64583 8.01285 3.42392 7.47803 3.42324 6.92017C3.42324 6.504 3.54665 6.09718 3.77786 5.75114C4.00908 5.40511 4.33771 5.13541 4.7222 4.97615C5.10669 4.81689 5.52977 4.77522 5.93795 4.85641C6.34612 4.9376 6.72105 5.13801 7.01533 5.43228C7.30961 5.72656 7.51001 6.10149 7.5912 6.50967C7.67239 6.91784 7.63072 7.34092 7.47146 7.72541C7.3122 8.10991 7.0425 8.43854 6.69647 8.66975ZM2.23028 12.7666C2.23028 10.949 3.70962 9.4701 5.52744 9.4701C7.34526 9.4701 8.82413 10.949 8.82413 12.7666C8.82407 12.8884 8.77561 13.0053 8.6894 13.0915C8.6032 13.1776 8.48631 13.226 8.36444 13.226H2.68974C2.56789 13.226 2.45102 13.1776 2.36486 13.0914C2.27869 13.0053 2.23028 12.8884 2.23028 12.7666ZM15.3939 11.9506C15.4801 11.8644 15.5285 11.7476 15.5285 11.6257V11.6248C15.5282 11.5031 15.4797 11.3865 15.3936 11.3005C15.3074 11.2145 15.1907 11.1663 15.069 11.1663H10.5922C10.4703 11.1663 10.3534 11.2147 10.2673 11.3008C10.1811 11.387 10.1327 11.5039 10.1327 11.6257C10.1327 11.7476 10.1811 11.8644 10.2673 11.9506C10.3534 12.0368 10.4703 12.0852 10.5922 12.0852H15.069C15.1909 12.0852 15.3077 12.0368 15.3939 11.9506ZM15.4935 9.19787C15.5166 9.14213 15.5285 9.08238 15.5285 9.02204V9.02111C15.5282 8.89942 15.4797 8.78279 15.3936 8.69683C15.3074 8.61086 15.1907 8.56259 15.069 8.56259H10.5922C10.4703 8.56259 10.3534 8.61099 10.2673 8.69716C10.1811 8.78332 10.1327 8.90019 10.1327 9.02204C10.1327 9.1439 10.1811 9.26076 10.2673 9.34693C10.3534 9.43309 10.4703 9.4815 10.5922 9.4815H15.069C15.1294 9.4815 15.1891 9.46962 15.2448 9.44653C15.3006 9.42344 15.3512 9.38959 15.3939 9.34693C15.4366 9.30426 15.4704 9.25361 15.4935 9.19787ZM15.3939 6.74326C15.4801 6.6571 15.5285 6.54023 15.5285 6.41838V6.41745C15.5282 6.29575 15.4797 6.17913 15.3936 6.09316C15.3074 6.0072 15.1907 5.95892 15.069 5.95892H10.5922C10.4703 5.95892 10.3534 6.00733 10.2673 6.09349C10.1811 6.17966 10.1327 6.29652 10.1327 6.41838C10.1327 6.54023 10.1811 6.6571 10.2673 6.74326C10.3534 6.82943 10.4703 6.87783 10.5922 6.87783H15.069C15.1909 6.87783 15.3077 6.82943 15.3939 6.74326Z" fill="#00B272"/>
<path d="M5.52744 5.73489C5.76182 5.73512 5.99086 5.80483 6.18563 5.93521C6.38039 6.06559 6.53213 6.25079 6.62167 6.46739C6.7112 6.68399 6.73451 6.92228 6.68864 7.15212C6.64277 7.38197 6.5298 7.59306 6.36398 7.75871C6.19817 7.92435 5.98697 8.03713 5.75708 8.08277C5.52719 8.12841 5.28893 8.10487 5.07242 8.01512C4.8559 7.92537 4.67086 7.77345 4.54067 7.57856C4.41048 7.38367 4.34099 7.15455 4.34099 6.92017C4.3413 6.60571 4.46644 6.30423 4.68891 6.08198C4.91137 5.85973 5.21298 5.73489 5.52744 5.73489Z" fill="#00B272"/>
<path d="M3.19433 12.3083C3.30087 11.7678 3.59174 11.2811 4.01727 10.9313C4.44279 10.5814 4.97657 10.3902 5.52744 10.3902C6.0783 10.3902 6.61208 10.5814 7.03761 10.9313C7.46314 11.2811 7.75401 11.7678 7.86055 12.3083H3.19433Z" fill="#00B272"/>
<path fill-rule="evenodd" clip-rule="evenodd" d="M2.5241 2.25093H15.4759V2.25C16.1451 2.2508 16.7867 2.51702 17.2599 2.99026C17.7331 3.4635 17.9993 4.10511 18 4.77434V13.2688C17.9993 13.938 17.7331 14.5797 17.2599 15.0529C16.7867 15.5261 16.1451 15.7924 15.4759 15.7932H2.5241C1.85488 15.7924 1.21329 15.5261 0.740095 15.0529C0.2669 14.5797 0.000738797 13.938 0 13.2688V4.77527C0.000738797 4.10604 0.2669 3.46443 0.740095 2.99119C1.21329 2.51795 1.85488 2.25173 2.5241 2.25093ZM16.6104 14.4033C16.9113 14.1024 17.0806 13.6944 17.0811 13.2688V4.77434C17.0806 4.34876 16.9113 3.94076 16.6104 3.63984C16.3095 3.33891 15.9015 3.16964 15.4759 3.16915H2.5241C2.09853 3.16964 1.69053 3.33891 1.38961 3.63984C1.08868 3.94076 0.919406 4.34876 0.918914 4.77434V13.2688C0.919406 13.6944 1.08868 14.1024 1.38961 14.4033C1.69053 14.7042 2.09853 14.8735 2.5241 14.874H15.4759C15.9015 14.8735 16.3095 14.7042 16.6104 14.4033Z" fill="#00B272"/>
</svg>
