<svg width="19" height="18" viewBox="0 0 19 18" fill="none" xmlns="http://www.w3.org/2000/svg">
<g clip-path="url(#clip0_1119_560)">
<path d="M9.5 18C7.09602 18 4.83589 17.0639 3.13602 15.364C1.43614 13.6641 0.5 11.404 0.5 9C0.5 6.59602 1.43618 4.33593 3.13602 2.63602C4.83586 0.936106 7.09602 0 9.5 0C11.904 0 14.1641 0.936141 15.864 2.63602C17.5639 4.33589 18.5 6.59602 18.5 9C18.5 11.404 17.5638 13.6641 15.864 15.364C14.1641 17.0639 11.904 18 9.5 18ZM9.5 1.125C5.15771 1.125 1.625 4.65771 1.625 9C1.625 13.3423 5.15771 16.875 9.5 16.875C13.8423 16.875 17.375 13.3423 17.375 9C17.375 4.65771 13.8423 1.125 9.5 1.125Z" fill="#00B272"/>
<path d="M9.5 1.125C5.15771 1.125 1.625 4.65771 1.625 9C1.625 13.3423 5.15771 16.875 9.5 16.875C13.8423 16.875 17.375 13.3423 17.375 9C17.375 4.65771 13.8423 1.125 9.5 1.125Z" fill="#00B272"/>
<path d="M9.5 8.4375C8.72459 8.4375 8.09375 7.80666 8.09375 7.03125C8.09375 6.25584 8.72459 5.625 9.5 5.625C10.2754 5.625 10.9062 6.25584 10.9062 7.03125C10.9062 7.34189 11.1581 7.59375 11.4688 7.59375C11.7794 7.59375 12.0312 7.34189 12.0312 7.03125C12.0312 5.82887 11.1883 4.82034 10.0625 4.56377V3.9375C10.0625 3.62686 9.81068 3.375 9.5 3.375C9.18932 3.375 8.9375 3.62686 8.9375 3.9375V4.56377C7.81173 4.82034 6.96875 5.82887 6.96875 7.03125C6.96875 8.42699 8.10426 9.5625 9.5 9.5625C10.2754 9.5625 10.9062 10.1933 10.9062 10.9688C10.9062 11.7442 10.2754 12.375 9.5 12.375C8.72459 12.375 8.09375 11.7442 8.09375 10.9688C8.09375 10.6581 7.84193 10.4062 7.53125 10.4062C7.22057 10.4062 6.96875 10.6581 6.96875 10.9688C6.96875 12.1711 7.81173 13.1797 8.9375 13.4362V14.0625C8.9375 14.3731 9.18932 14.625 9.5 14.625C9.81068 14.625 10.0625 14.3731 10.0625 14.0625V13.4362C11.1883 13.1797 12.0312 12.1711 12.0312 10.9688C12.0312 9.57301 10.8957 8.4375 9.5 8.4375Z" fill="white"/>
</g>
<defs>
<clipPath id="clip0_1119_560">
<rect width="18" height="18" fill="white" transform="translate(0.5)"/>
</clipPath>
</defs>
</svg>
