<svg width="19" height="18" viewBox="0 0 19 18" fill="none" xmlns="http://www.w3.org/2000/svg">
<g clip-path="url(#clip0_1119_566)">
<path d="M9.50004 12.7977C9.8327 12.7977 10.1024 12.528 10.1024 12.1953C10.1024 11.8627 9.8327 11.593 9.50004 11.593C9.16738 11.593 8.89771 11.8627 8.89771 12.1953C8.89771 12.528 9.16738 12.7977 9.50004 12.7977Z" fill="#00B272"/>
<path d="M9.50004 6.40706C9.8327 6.40706 10.1024 6.13738 10.1024 5.80472C10.1024 5.47207 9.8327 5.20239 9.50004 5.20239C9.16738 5.20239 8.89771 5.47207 8.89771 5.80472C8.89771 6.13738 9.16738 6.40706 9.50004 6.40706Z" fill="#00B272"/>
<path d="M18.0148 0.485684C17.702 0.172477 17.2858 0 16.843 0H10.5329C10.0902 0 9.67402 0.172406 9.36099 0.485473L0.985543 8.86092C0.672406 9.17402 0.5 9.59017 0.5 10.0327C0.5 10.4753 0.672477 10.8915 0.985543 11.2043L7.29553 17.5144C7.60849 17.8275 8.02463 18 8.46725 18C8.90983 18 9.32598 17.8276 9.63908 17.5145L18.0145 9.13901C18.3276 8.82598 18.5 8.4098 18.5 7.96714V1.65702C18.5 1.21416 18.3275 0.797977 18.0148 0.485684ZM9.50004 4.14763C10.4137 4.14763 11.1571 4.89097 11.1571 5.80465C11.1571 6.71832 10.4137 7.46167 9.50004 7.46167C8.58636 7.46167 7.84302 6.71832 7.84302 5.80465C7.84302 4.89097 8.58636 4.14763 9.50004 4.14763ZM9.50004 13.8523C8.58636 13.8523 7.84302 13.109 7.84302 12.1953C7.84302 11.2816 8.58636 10.5383 9.50004 10.5383C10.4137 10.5383 11.1571 11.2816 11.1571 12.1953C11.1571 13.109 10.4137 13.8523 9.50004 13.8523ZM12.8891 9.52731H6.11101C5.81977 9.52731 5.58366 9.2912 5.58366 8.99996C5.58366 8.70873 5.81977 8.47262 6.11101 8.47262H12.8891C13.1803 8.47262 13.4164 8.70873 13.4164 8.99996C13.4164 9.2912 13.1803 9.52731 12.8891 9.52731ZM15.1484 3.87889C14.8574 3.87889 14.6211 3.64264 14.6211 3.35155C14.6211 3.06046 14.8574 2.82421 15.1484 2.82421C15.4395 2.82421 15.6758 3.06046 15.6758 3.35155C15.6758 3.64264 15.4395 3.87889 15.1484 3.87889Z" fill="#00B272"/>
</g>
<defs>
<clipPath id="clip0_1119_566">
<rect width="18" height="18" fill="white" transform="translate(0.5)"/>
</clipPath>
</defs>
</svg>
