<svg width="18" height="18" viewBox="0 0 18 18" fill="none" xmlns="http://www.w3.org/2000/svg">
<g clip-path="url(#clip0_1119_545)">
<path d="M14.9322 -0.05H14.9322L3.47731 -0.05L3.47726 -0.05C3.13862 -0.0496302 2.81396 0.0850561 2.57451 0.324508C2.33506 0.56396 2.20037 0.88862 2.2 1.22726V1.22731V17.333C2.19998 17.4461 2.22889 17.5573 2.28397 17.6562C2.33905 17.755 2.41848 17.8381 2.51472 17.8976C2.61095 17.9571 2.7208 17.9909 2.83382 17.996C2.94684 18.0011 3.05929 17.9772 3.16047 17.9266L4.22617 17.3935L4.22619 17.3935C4.24767 17.3828 4.27136 17.3772 4.29539 17.3772C4.31942 17.3772 4.34311 17.3828 4.36459 17.3935L4.36461 17.3935L5.45228 17.9374L5.45241 17.9375C5.60145 18.0115 5.76559 18.05 5.93199 18.05C6.09838 18.05 6.26252 18.0115 6.41157 17.9375L6.41171 17.9374L7.49899 17.3935L7.499 17.3935C7.52048 17.3828 7.54418 17.3772 7.5682 17.3772C7.59223 17.3772 7.61593 17.3828 7.63741 17.3935L7.63743 17.3935L8.72509 17.9374L8.72523 17.9375C8.87427 18.0115 9.03841 18.05 9.2048 18.05C9.3712 18.05 9.53534 18.0115 9.68438 17.9375L9.68451 17.9374L10.7722 17.3935L10.7722 17.3935C10.7936 17.3828 10.8172 17.3772 10.8411 17.3772C10.865 17.3772 10.8886 17.3828 10.91 17.3935L10.91 17.3935L11.9979 17.9374L11.998 17.9375C12.1471 18.0115 12.3112 18.05 12.4776 18.05C12.644 18.05 12.8082 18.0115 12.9572 17.9375L12.9573 17.9374L14.0446 17.3935L14.0446 17.3935C14.0661 17.3828 14.0898 17.3772 14.1138 17.3772C14.1379 17.3772 14.1616 17.3828 14.183 17.3935L14.1831 17.3935L15.2493 17.9266L15.2493 17.9266C15.3505 17.9772 15.4629 18.001 15.5759 17.9959C15.6889 17.9908 15.7987 17.9569 15.8949 17.8975C15.9911 17.838 16.0705 17.7549 16.1256 17.6561C16.1806 17.5573 16.2096 17.4461 16.2096 17.333V1.22731V1.22726C16.2092 0.888606 16.0745 0.563934 15.835 0.32448C15.5956 0.0850257 15.2709 -0.0496513 14.9322 -0.05Z" fill="#00B272" stroke="#00B272" stroke-width="0.1"/>
<path d="M8.78348 7.28149L8.78347 7.28148L8.78159 7.28077C8.49549 7.17217 8.079 7.01407 7.73411 6.7431C7.38668 6.47013 7.1092 6.08036 7.10918 5.51106C7.10918 4.91553 7.50949 4.3501 8.14239 4.02988L8.1425 4.02982C8.3335 3.93377 8.5363 3.86339 8.74561 3.82045V3.27318V3.27294L8.78348 7.28149ZM8.78348 7.28149L8.79238 7.28487C8.8787 7.31761 8.9555 7.34673 9.01955 7.37499C9.11081 7.41525 9.2159 7.45555 9.3269 7.49798L9.32691 7.49799M8.78348 7.28149L9.32691 7.49799M9.32691 7.49799C9.64614 7.61993 9.91134 7.73111 10.0971 7.87093C10.2798 8.00849 10.382 8.1709 10.382 8.39861C10.382 8.51113 10.3321 8.63501 10.2392 8.75293C10.1465 8.87045 10.0132 8.97913 9.85253 9.06043L9.87511 9.10504M9.32691 7.49799L9.87511 9.10504M9.87511 9.10504L9.85253 9.06043C9.26619 9.35715 8.51518 9.24701 7.84027 8.75079M9.87511 9.10504C9.26743 9.41256 8.49618 9.29512 7.81062 8.79104M8.74565 10.6372L8.74565 10.6367L8.74565 10.11C8.25242 10.0356 7.75598 9.82847 7.29639 9.49042C7.24774 9.45477 7.20659 9.40988 7.1753 9.35831C7.14399 9.30672 7.12316 9.24946 7.11401 9.18981C7.10485 9.13016 7.10755 9.06928 7.12194 9.01067C7.13633 8.95206 7.16215 8.89687 7.19789 8.84825C7.23364 8.79962 7.27863 8.75853 7.33028 8.72731C7.38193 8.69609 7.43923 8.67536 7.4989 8.66631C7.55856 8.65726 7.61943 8.66007 7.67802 8.67457C7.73658 8.68906 7.79172 8.71496 7.84027 8.75079M8.74565 10.6372L7.81062 8.79104M8.74565 10.6372C8.74682 10.7582 8.79571 10.8738 8.88168 10.959C8.96765 11.0441 9.08375 11.0919 9.20475 11.0919C9.32574 11.0919 9.44184 11.0441 9.52781 10.959C9.61378 10.8738 9.66267 10.7582 9.66384 10.6372V10.6367M8.74565 10.6372L9.66384 10.6367M7.84027 8.75079C7.84028 8.7508 7.84029 8.7508 7.84031 8.75081L7.81062 8.79104M7.84027 8.75079C7.84026 8.75078 7.84025 8.75077 7.84024 8.75076L7.81062 8.79104M9.66384 10.6367V10.0874C9.87302 10.0451 10.0758 9.97545 10.2668 9.88011L10.2671 9.87998M9.66384 10.6367L10.2671 9.87998M10.2671 9.87998C10.9 9.55968 11.3003 8.99421 11.3003 8.39873M10.2671 9.87998L11.3003 8.39873M10.5693 5.15895L10.5693 5.15895C9.89435 4.66278 9.14313 4.5527 8.55696 4.84924C8.55696 4.84924 8.55696 4.84924 8.55696 4.84924L10.5693 5.15895ZM10.5693 5.15895C10.6178 5.19466 10.673 5.22044 10.7315 5.23484M10.5693 5.15895L10.7315 5.23484M11.3003 8.39873C11.3003 7.83269 11.0382 7.44901 10.7011 7.17949M11.3003 8.39873L10.7011 7.17949M10.7011 7.17949C10.367 6.91238 9.95758 6.756 9.65701 6.6412M10.7011 7.17949L9.65701 6.6412M9.65701 6.6412L9.65469 6.64032M9.65701 6.6412L9.65469 6.64032M9.65469 6.64032L9.65466 6.6403L9.65469 6.64032ZM10.7315 5.23484C10.7901 5.24923 10.8509 5.25195 10.9105 5.24285M10.7315 5.23484L10.9105 5.24285M10.9105 5.24285C10.9701 5.23374 11.0273 5.21298 11.0789 5.18176M10.9105 5.24285L11.0789 5.18176M11.0789 5.18176C11.1305 5.15054 11.1754 5.10947 11.2111 5.06088M11.0789 5.18176L11.2111 5.06088M11.2111 5.06088C11.2468 5.0123 11.2726 4.95716 11.287 4.89861M11.2111 5.06088L11.287 4.89861M11.287 4.89861C11.3014 4.84006 11.3041 4.77925 11.295 4.71965M11.287 4.89861L11.295 4.71965M11.295 4.71965C11.2859 4.66005 11.2651 4.60283 11.2339 4.55125M11.295 4.71965L11.2339 4.55125M11.2339 4.55125C11.2027 4.49967 11.1616 4.45475 11.1131 4.41905M11.2339 4.55125L11.1131 4.41905M11.1131 4.41905C10.6536 4.08119 10.1571 3.87197 9.6638 3.79748V3.27317V3.27294L11.1131 4.41905Z" fill="white" stroke="#00B272" stroke-width="0.1"/>
<path d="M12.8597 12.1154L12.9052 12.0964C12.9286 12.1524 12.9406 12.2125 12.9406 12.2731C12.9406 12.3338 12.9286 12.3939 12.9052 12.4499C12.8819 12.5058 12.8476 12.5567 12.8045 12.5993C12.7614 12.642 12.7103 12.6758 12.6541 12.6986C12.5979 12.7213 12.5379 12.7328 12.4773 12.7322M12.8597 12.1154L5.93188 12.6822M12.8597 12.1154L12.9052 12.0964C12.8819 12.0404 12.8476 11.9896 12.8045 11.9469C12.7614 11.9042 12.7103 11.8705 12.6541 11.8477C12.5979 11.8249 12.5379 11.8135 12.4773 11.814M12.8597 12.1154L12.4775 11.864M12.4773 12.7322C12.4772 12.7322 12.4771 12.7322 12.477 12.7322L12.4775 12.6822V12.7322H12.4773ZM12.4773 12.7322H5.93211M5.93211 12.7322C5.93219 12.7322 5.93228 12.7322 5.93236 12.7322L5.93188 12.6822M5.93211 12.7322H5.93188V12.6822M5.93211 12.7322C5.87153 12.7328 5.81144 12.7213 5.7553 12.6986C5.69909 12.6758 5.64795 12.642 5.60485 12.5993C5.56174 12.5567 5.52753 12.5058 5.50417 12.4499C5.48082 12.3939 5.4688 12.3338 5.4688 12.2731C5.4688 12.2125 5.48082 12.1524 5.50417 12.0964C5.52753 12.0404 5.56174 11.9896 5.60485 11.9469C5.64795 11.9042 5.69909 11.8705 5.7553 11.8477C5.81144 11.8249 5.87153 11.8135 5.93211 11.814M5.93188 12.6822L12.4775 11.864M5.93211 11.814C5.93219 11.814 5.93228 11.814 5.93236 11.814L5.93188 11.864V11.814H5.93211ZM5.93211 11.814H12.4773M12.4773 11.814C12.4772 11.814 12.4771 11.814 12.477 11.814L12.4775 11.864M12.4773 11.814H12.4775V11.864" fill="white" stroke="#00B272" stroke-width="0.1"/>
<path d="M12.8597 13.7519L12.9052 13.7329C12.9286 13.7889 12.9406 13.8489 12.9406 13.9096C12.9406 13.9703 12.9286 14.0303 12.9052 14.0863C12.8819 14.1423 12.8476 14.1931 12.8045 14.2358C12.7614 14.2785 12.7103 14.3122 12.6541 14.335C12.5979 14.3578 12.5379 14.3693 12.4773 14.3687M12.8597 13.7519L5.93188 14.3187M12.8597 13.7519L12.9052 13.7329C12.8819 13.6769 12.8476 13.6261 12.8045 13.5834C12.7614 13.5407 12.7103 13.507 12.6541 13.4842C12.5979 13.4614 12.5379 13.45 12.4773 13.4505M12.8597 13.7519L12.4775 13.5005M12.4773 14.3687C12.4772 14.3687 12.4771 14.3687 12.477 14.3687L12.4775 14.3187V14.3687H12.4773ZM12.4773 14.3687H5.93211M5.93211 14.3687C5.93219 14.3687 5.93228 14.3687 5.93236 14.3687L5.93188 14.3187M5.93211 14.3687H5.93188V14.3187M5.93211 14.3687C5.87153 14.3693 5.81144 14.3578 5.7553 14.335C5.69909 14.3122 5.64795 14.2785 5.60485 14.2358C5.56174 14.1931 5.52753 14.1423 5.50417 14.0863C5.48082 14.0303 5.4688 13.9703 5.4688 13.9096C5.4688 13.8489 5.48082 13.7889 5.50417 13.7329C5.52753 13.6769 5.56174 13.6261 5.60485 13.5834C5.64795 13.5407 5.69909 13.507 5.7553 13.4842C5.81144 13.4614 5.87153 13.45 5.93211 13.4505M5.93188 14.3187L12.4775 13.5005M5.93211 13.4505C5.93219 13.4505 5.93228 13.4505 5.93236 13.4505L5.93188 13.5005V13.4505H5.93211ZM5.93211 13.4505H12.4773M12.4773 13.4505C12.4772 13.4505 12.4771 13.4505 12.477 13.4505L12.4775 13.5005M12.4773 13.4505H12.4775V13.5005" fill="white" stroke="#00B272" stroke-width="0.1"/>
</g>
<defs>
<clipPath id="clip0_1119_545">
<rect width="18" height="18" fill="white"/>
</clipPath>
</defs>
</svg>
