<svg viewBox="0 0 100 100" xmlns="http://www.w3.org/2000/svg">
    <path d="M50 100C22.4297 100 0 77.5703 0 50C0 22.4297 22.4297 0 50 0C77.5703 0 100 22.4297 100 50C100 77.5703 77.5703 100 50 100ZM50 7.14264C26.3687 7.14264 7.14264 26.3687 7.14264 50C7.14264 73.6313 26.3687 92.8574 50 92.8574C73.6313 92.8574 92.8574 73.6313 92.8574 50C92.8574 26.3687 73.6313 7.14264 50 7.14264Z"
          fill="white" class="background"/>
    <path d="M50 7.14264C26.3687 7.14264 7.14264 26.3687 7.14264 50C7.14264 73.6313 26.3687 92.8574 50 92.8574C73.6313 92.8574 92.8574 73.6313 92.8574 50C92.8574 26.3687 73.6313 7.14264 50 7.14264Z"
          fill="white" class="background"/>
    <path d="M34.5556 38.8966C33.8977 39.8824 32.567 40.1524 31.5834 39.4988C30.5977 38.8431 30.3277 37.5145 30.9813 36.5266C36.8827 27.6252 48.0598 23.8602 58.1741 27.3702C66.4027 30.2267 72.1991 37.3066 73.5941 45.5823L74.5262 44.3716C75.2462 43.4331 76.5919 43.2574 77.5305 43.9795C78.4691 44.7016 78.6427 46.0452 77.9205 46.9838L73.5919 52.6045C72.6127 53.8816 71.1319 53.4145 70.0477 52.5809C70.0348 52.5702 64.967 48.6702 64.967 48.6702C64.0284 47.9481 63.8548 46.6045 64.577 45.6659C65.297 44.7252 66.6405 44.5538 67.5812 45.2738L69.4155 46.6859C68.3955 39.7602 63.617 33.7966 56.7663 31.4181C48.5184 28.5488 39.3748 31.6259 34.5556 38.8966Z"
          fill="currentColor"/>
    <path d="M26.4895 54.638C26.0695 55.1866 25.433 55.4737 24.7902 55.4737C24.3338 55.4737 23.873 55.328 23.4852 55.0302C22.5466 54.308 22.373 52.9644 23.0952 52.0259L27.4238 46.4052C28.388 45.1473 29.903 45.608 30.968 46.4287C30.9809 46.4373 36.0487 50.3394 36.0487 50.3394C36.9873 51.0616 37.1609 52.4052 36.4387 53.3437C35.7187 54.2823 34.3752 54.4537 33.4345 53.7359L31.6002 52.3237C32.6202 59.2494 37.3987 65.213 44.2494 67.5916C52.5059 70.463 61.6408 67.3859 66.4601 60.113C67.118 59.1273 68.4423 58.853 69.4323 59.5109C70.418 60.1644 70.688 61.4951 70.0344 62.4809C65.6094 69.1516 58.2187 72.9401 50.5387 72.9401C47.9737 72.9401 45.3744 72.518 42.8416 71.6394C34.613 68.783 28.8166 61.703 27.4216 53.4273L26.4895 54.638Z"
          fill="currentColor"/>
</svg>
