<svg viewBox="0 0 100 100" xmlns="http://www.w3.org/2000/svg">
    <path d="M47.1723 97.1717C48.7344 98.7337 51.267 98.7337 52.8291 97.1716L56.0127 93.9881C57.5725 92.4283 57.5751 89.9002 56.0186 88.3372L24.8022 56.989C24.4882 56.6737 24.7115 56.1362 25.1565 56.1362H96.0007C98.2099 56.1362 100.001 54.3453 100.001 52.1362V47.8639C100.001 45.6547 98.2099 43.8639 96.0007 43.8639H25.1565C24.7115 43.8639 24.4882 43.3263 24.8022 43.0111L56.0186 11.6628C57.5751 10.0998 57.5725 7.57172 56.0127 6.01195L52.8292 2.82843C51.2671 1.26633 48.7344 1.26633 47.1723 2.82843L2.82847 47.1723C1.26636 48.7344 1.26637 51.2671 2.82851 52.8292L47.1723 97.1717Z"
          fill="currentColor"/>
</svg>
