<svg viewBox="0 0 100 100" xmlns="http://www.w3.org/2000/svg">
    <path d="M50 100C36.738 100 24.02 94.7305 14.645 85.355C5.27 75.9795 0 63.261 0 50C0 36.739 5.2695 24.02 14.645 14.645C24.0205 5.27 36.739 0 50 0C63.261 0 75.98 5.2695 85.355 14.645C94.73 24.0205 100 36.739 100 50C99.9844 63.258 94.7109 75.965 85.34 85.34C75.965 94.7111 63.258 99.985 50 100ZM50 7.691C38.781 7.691 28.02 12.148 20.082 20.082C12.1484 28.0195 7.691 38.781 7.691 50C7.691 61.219 12.148 71.98 20.082 79.918C28.0195 87.8516 38.781 92.309 50 92.309C61.219 92.309 71.98 87.852 79.918 79.918C87.8516 71.9805 92.309 61.219 92.309 50C92.2934 38.785 87.8324 28.031 79.903 20.098C71.9694 12.1683 61.214 7.706 50 7.691Z"
          fill="currentColor"/>
    <path d="M50 7.691C38.781 7.691 28.02 12.148 20.082 20.082C12.1484 28.0195 7.691 38.781 7.691 50C7.691 61.219 12.148 71.98 20.082 79.918C28.0195 87.8516 38.781 92.309 50 92.309C61.219 92.309 71.98 87.852 79.918 79.918C87.8516 71.9805 92.309 61.219 92.309 50C92.2934 38.785 87.8324 28.031 79.903 20.098C71.9694 12.1683 61.214 7.706 50 7.691Z"
          fill="white" class="background"/>
    <path d="M50.0002 65.4173C47.8752 65.4173 46.1525 63.6976 46.1525 61.5714C46.6525 56.6822 49.1486 52.215 53.0509 49.229C55.4376 46.841 57.6915 44.586 57.6915 42.3309C57.6915 38.0787 54.2501 34.6355 50.0001 34.6355C45.7501 34.6355 42.3087 38.0787 42.3087 42.3309C42.3087 44.457 40.586 46.1767 38.461 46.1767C36.336 46.1767 34.6172 44.457 34.6172 42.3309C34.6172 36.8319 37.5469 31.7474 42.3086 28.9999C47.0664 26.2485 52.9336 26.2485 57.6916 28.9999C62.4533 31.7475 65.383 36.8321 65.383 42.3309C64.8869 47.2201 62.3908 51.6835 58.4885 54.6693C56.1018 57.0612 53.8479 59.3163 53.8479 61.5713C53.8479 62.5914 53.4417 63.5685 52.719 64.2916C52.0003 65.0146 51.0198 65.4173 50.0002 65.4173Z"
          fill="currentColor"/>
    <path d="M53.8522 73.118C53.8522 78.2522 46.1529 78.2522 46.1529 73.118C46.1529 67.9837 53.8522 67.9837 53.8522 73.118Z"
          fill="currentColor"/>
</svg>
